<?xml version="1.0" encoding="UTF-8"?>
<svg version="1.1" xmlns="http://www.w3.org/2000/svg" width="576" height="576">
<path d="M0 0 C11.75396678 8.5525574 22.26258502 18.31059481 30.96875 29.97265625 C31.69449219 30.94460937 32.42023437 31.9165625 33.16796875 32.91796875 C62.61369534 73.92615342 74.97481113 126.897168 75.171875 176.8125 C75.17893463 178.00482239 75.18599426 179.19714478 75.19326782 180.42559814 C75.42176141 230.3346041 75.42176141 230.3346041 71.96875 250.97265625 C71.66275879 252.84099121 71.66275879 252.84099121 71.35058594 254.74707031 C63.02174662 304.68000623 44.32067259 359.48978924 1.52734375 390.51171875 C-19.44043943 405.22273985 -41.58112583 411.98746005 -67.34423828 408.67529297 C-92.83228064 404.19937345 -112.49782198 384.66265161 -126.9921875 364.38671875 C-137.28460254 349.60014977 -146.46715775 334.07361889 -155.63916016 318.57763672 C-175.16589292 285.66706581 -197.19205964 255.58643787 -235.671875 244.76953125 C-251.63309003 240.98338257 -268.52362041 241.8389736 -284.03125 246.97265625 C-285.42537109 247.42318359 -285.42537109 247.42318359 -286.84765625 247.8828125 C-315.91294078 258.38998109 -333.95622587 287.02745874 -350.84350586 311.04296875 C-381.27510683 354.27633719 -381.27510683 354.27633719 -403.73828125 358.72265625 C-422.04726469 360.71886569 -439.36055421 356.51977619 -454.15625 345.28515625 C-482.5068852 321.29615724 -491.9193632 284.0797975 -498.03125 248.97265625 C-498.21204102 247.94269531 -498.39283203 246.91273438 -498.57910156 245.8515625 C-501.26722019 229.58390227 -501.33605538 213.22999324 -501.40625 196.78515625 C-501.4142865 195.73695709 -501.422323 194.68875793 -501.43060303 193.60879517 C-501.54476679 173.96397986 -500.16487993 154.33517343 -495.34375 135.22265625 C-495.08956299 134.19736816 -494.83537598 133.17208008 -494.57348633 132.11572266 C-488.2723338 107.77490418 -477.30162882 83.60743151 -455.31396484 69.85986328 C-449.83636584 66.63960769 -444.17788084 64.51160406 -438.03125 62.97265625 C-437.29777344 62.78316406 -436.56429687 62.59367187 -435.80859375 62.3984375 C-416.07458278 59.37311092 -397.42421123 63.32023597 -381.1640625 75.0390625 C-370.48794029 83.49225275 -361.46538599 93.33173916 -353.03125 103.97265625 C-351.53437637 105.80854308 -350.03436334 107.64187461 -348.53125 109.47265625 C-346.30333984 112.18924446 -344.08197157 114.90927738 -341.88671875 117.65234375 C-323.16309861 140.93035798 -302.03657387 161.17763497 -271.03125 164.97265625 C-242.42979141 166.45204204 -217.85257266 160.28542376 -196.09375 140.87890625 C-172.6297577 119.11181115 -158.83838156 85.94749482 -145 57.82226562 C-135.03708307 37.59307373 -123.68438846 19.26712208 -108.03125 2.97265625 C-107.37769531 2.23273438 -106.72414063 1.4928125 -106.05078125 0.73046875 C-78.40620416 -29.5665731 -30.32264148 -20.28022027 0 0 Z " fill="#97FCE3" transform="translate(501.03125,94.02734375)"/>
</svg>
