<?xml version="1.0" encoding="UTF-8"?>
<svg version="1.1" xmlns="http://www.w3.org/2000/svg" width="48" height="48">
<path d="M0 0 C7.85626352 3.8564941 15.05149291 10.09934272 18.5703125 18.26171875 C18.8828125 21.38671875 18.8828125 21.38671875 18.5703125 24.26171875 C17.5803125 24.92171875 16.5903125 25.58171875 15.5703125 26.26171875 C15.26738281 25.59785156 14.96445312 24.93398438 14.65234375 24.25 C10.11405167 14.6846767 3.74935573 7.90964814 -6.36328125 4.1796875 C-12.77818889 2.39005085 -17.88859885 2.06251916 -24.4296875 3.26171875 C-24.1796875 1.38671875 -24.1796875 1.38671875 -23.4296875 -0.73828125 C-16.68783782 -5.47416671 -6.99569159 -2.8401312 0 0 Z " fill="#6CCC87" transform="translate(24.4296875,15.73828125)"/>
<path d="M0 0 C8.23674844 2.93062993 15.38080859 8.51300141 19.3671875 16.38671875 C19.5546875 20.19921875 19.5546875 20.19921875 19.3671875 23.38671875 C18.0471875 23.71671875 16.7271875 24.04671875 15.3671875 24.38671875 C14.8721875 23.21109375 14.3771875 22.03546875 13.8671875 20.82421875 C10.7400418 14.59202733 5.93948007 10.76473263 -0.1328125 7.51171875 C-5.58355658 5.75969387 -10.89531427 5.20742193 -16.6328125 5.38671875 C-16.2578125 2.94921875 -16.2578125 2.94921875 -15.6328125 0.38671875 C-11.02110019 -1.9191374 -4.88685632 -1.138333 0 0 Z " fill="#4BC5A3" transform="translate(16.6328125,21.61328125)"/>
<path d="M0 0 C8.38969445 0.13295871 14.26002201 4.09918623 20.37109375 9.53125 C22.06653426 11.38525689 23.08415328 12.97780267 24 15.3125 C23.625 17.5625 23.625 17.5625 23 19.3125 C20.6875 19.5625 20.6875 19.5625 18 19.3125 C16.02389614 17.26825462 15 16.1948175 15 13.3125 C12.07361253 11.80537666 9.11301997 10.48618914 6.0625 9.25 C5.22847656 8.90839844 4.39445313 8.56679688 3.53515625 8.21484375 C1.03197122 7.32387959 -1.38552083 6.76617528 -4 6.3125 C-4.38218767 4.65635343 -4.71395102 2.98792976 -5 1.3125 C-3.47827113 -0.20922887 -2.12019862 0.06993711 0 0 Z " fill="#2DBFBD" transform="translate(6,28.6875)"/>
<path d="M0 0 C6.03368463 3.41880588 12.58091632 7.7846397 16 14 C16.71897366 17.01582912 16.98595944 19.90405639 17 23 C14.78864152 20.91113659 13.1269989 18.77164015 11.4375 16.25 C4.83707298 7.40607808 -5.31375353 2.12808095 -16.140625 0.5390625 C-18.76281535 0.2902906 -21.36841101 0.10180228 -24 0 C-24 -0.66 -24 -1.32 -24 -2 C-15.71123073 -6.01879722 -8.03014132 -3.47802299 0 0 Z " fill="#95D362" transform="translate(30,9)"/>
<path d="M0 0 C6.68287684 0.17358122 12.57082954 1.73279078 17.61328125 6.28125 C24.5 13.92365424 24.5 13.92365424 24.5 19.375 C23.84 19.375 23.18 19.375 22.5 19.375 C21.31837348 17.90894657 20.13713962 16.44257379 18.95849609 14.97412109 C12.89234582 8.32308589 2.10970059 4.2794499 -6.5 2.375 C-4.07098098 -0.05401902 -3.34361143 0.05290524 0 0 Z " fill="#A6D753" transform="translate(23.5,-0.375)"/>
<path d="M0 0 C6.86155667 0.24951115 11.91567386 2.24943706 17 7 C17.75390625 9.19921875 17.75390625 9.19921875 18 11 C10.02913386 9.35085528 4.90023656 6.78494293 0 0 Z " fill="#15B9D3" transform="translate(4,37)"/>
<path d="M0 0 C0 1.32 0 2.64 0 4 C-2.97 4 -5.94 4 -9 4 C-9 3.34 -9 2.68 -9 2 C-5.62902617 0.50178941 -3.79557881 0 0 0 Z " fill="#84D170" transform="translate(15,5)"/>
</svg>
