<?xml version="1.0" encoding="UTF-8"?>
<svg version="1.1" xmlns="http://www.w3.org/2000/svg" width="500" height="500">
<path d="M0 0 C0.74420981 -0.00155999 1.48841963 -0.00311998 2.25518125 -0.00472724 C4.76181039 -0.00873239 7.26837951 -0.00554948 9.77500916 -0.00241089 C11.56676265 -0.00376513 13.35851587 -0.0055452 15.15026855 -0.00772095 C20.02610173 -0.0122922 24.90191383 -0.01050706 29.77774739 -0.00734186 C34.87021394 -0.00481707 39.96267864 -0.0071561 45.05514526 -0.00872803 C53.60727768 -0.01054921 62.15940148 -0.00814459 70.71153259 -0.00338745 C80.61358648 0.00205681 90.51561978 0.00029112 100.41767317 -0.00521386 C108.90513411 -0.00974438 117.39258884 -0.01039589 125.8800506 -0.00777519 C130.95555009 -0.0062123 136.03103989 -0.006019 141.10653877 -0.00931168 C145.87610658 -0.01218957 150.64564772 -0.01021621 155.41521263 -0.00441742 C157.17086874 -0.00308945 158.92652707 -0.00348455 160.68218231 -0.00568008 C163.06834443 -0.00839013 165.45441967 -0.0050123 167.84057617 0 C168.89638944 -0.00334608 168.89638944 -0.00334608 169.97353226 -0.00675976 C174.74264628 0.01283366 174.74264628 0.01283366 175.85679626 1.12698364 C175.95674285 3.62882198 175.99121036 6.10311617 175.98377991 8.60549927 C175.9853399 9.39785728 175.98689989 10.1902153 175.98850715 11.00658417 C175.99252037 13.68215248 175.98932627 16.35766483 175.9861908 19.03323364 C175.98754469 20.94306471 175.98932456 22.85289552 175.99150085 24.76272583 C175.99607655 29.96505366 175.99428507 35.16736175 175.99112177 40.36968994 C175.98859887 45.80115819 175.99093551 51.2326247 175.99250793 56.66409302 C175.99432984 65.787143 175.99192278 74.91018489 175.98716736 84.03323364 C175.9817247 94.5970296 175.98348734 105.16080626 175.98899376 115.72460175 C175.99352431 124.77679358 175.99417573 133.82897958 175.99155509 142.88117218 C175.989992 148.29538794 175.98979944 153.70959462 175.99309158 159.12380981 C175.99596945 164.21264555 175.99399616 169.30145629 175.98819733 174.39028931 C175.98686927 176.26366128 175.9872646 178.13703534 175.98945999 180.01040649 C175.99216974 182.55645591 175.98879255 185.10242387 175.98377991 187.64846802 C175.98601063 188.39971703 175.98824135 189.15096603 175.99053967 189.92498016 C175.97094611 195.01283379 175.97094611 195.01283379 174.85679626 196.12698364 C172.50845795 196.22682664 170.18947671 196.26141142 167.84057617 196.25396729 C167.09792635 196.25552728 166.35527653 196.25708727 165.59012216 196.25869453 C163.08272101 196.26270732 160.57537959 196.25951381 158.06797791 196.25637817 C156.27799443 196.2577321 154.48801123 196.25951199 152.69802856 196.26168823 C147.82206903 196.26626389 142.94613056 196.26447238 138.07017064 196.26130915 C132.97816614 196.25878583 127.8861635 196.26112304 122.79415894 196.26269531 C114.24024633 196.26451726 105.68634233 196.26211022 97.13243103 196.25735474 C87.23098594 196.25191381 77.32956145 196.25367345 67.42811686 196.25918114 C58.94150969 196.26371363 50.45490874 196.2643621 41.96830076 196.26174247 C36.89331343 196.26018023 31.81833579 196.25998448 26.74334908 196.26327896 C21.97214986 196.26615958 17.20097729 196.26417844 12.42978096 196.2583847 C10.67454574 196.25705806 8.91930829 196.25744961 7.16407394 196.25964737 C4.77601863 196.26236265 2.38804975 196.25897304 0 196.25396729 C-0.70164479 196.25619801 -1.40328957 196.25842873 -2.12619632 196.26072705 C-6.91490377 196.24113362 -6.91490377 196.24113362 -9.14320374 195.12698364 C-9.14320374 187.86698364 -9.14320374 180.60698364 -9.14320374 173.12698364 C-12.11320374 172.79698364 -15.08320374 172.46698364 -18.14320374 172.12698364 C-38.82321527 168.83805732 -56.63088401 159.64714069 -72.62757874 146.3677063 C-74.07382884 145.1837754 -75.56096626 144.05032258 -77.04945374 142.91995239 C-77.74039124 142.32827271 -78.43132874 141.73659302 -79.14320374 141.12698364 C-79.14320374 140.46698364 -79.14320374 139.80698364 -79.14320374 139.12698364 C-79.74132874 138.85885864 -80.33945374 138.59073364 -80.95570374 138.31448364 C-83.14168227 137.12780958 -84.55652967 136.03099252 -86.14320374 134.12698364 C-86.14320374 133.46698364 -86.14320374 132.80698364 -86.14320374 132.12698364 C-86.80320374 132.12698364 -87.46320374 132.12698364 -88.14320374 132.12698364 C-88.14320374 131.46698364 -88.14320374 130.80698364 -88.14320374 130.12698364 C-88.80320374 130.12698364 -89.46320374 130.12698364 -90.14320374 130.12698364 C-91.90997986 128.01973504 -93.53670543 125.91539469 -95.14320374 123.68948364 C-95.63014709 123.01788208 -96.11709045 122.34628052 -96.61878967 121.65432739 C-103.79165488 111.58910294 -109.95981145 100.91107937 -115.39320374 89.81448364 C-115.70547913 89.19831177 -116.01775452 88.58213989 -116.3394928 87.94729614 C-117.53405695 85.40155038 -118.30403003 83.75216757 -117.58851624 80.97073364 C-93.26416967 49.9407564 -47.64412503 32.16526758 -10.14320374 26.12698364 C-9.81320374 17.87698364 -9.48320374 9.62698364 -9.14320374 1.12698364 C-6.19900054 -0.34511795 -3.22717644 -0.01026008 0 0 Z M-7.14320374 28.12698364 C-7.14320374 32.08698364 -7.14320374 36.04698364 -7.14320374 40.12698364 C-5.81546936 40.24815552 -4.48773499 40.36932739 -3.11976624 40.49417114 C25.58299767 43.17834821 46.62398852 52.11983882 67.85679626 72.12698364 C68.56449158 72.77022583 69.27218689 73.41346802 70.00132751 74.07620239 C70.6342572 74.67046021 71.26718689 75.26471802 71.91929626 75.87698364 C72.74107361 76.64268677 72.74107361 76.64268677 73.57945251 77.42385864 C75.30622656 79.72622404 75.75297637 81.24598156 75.85679626 84.12698364 C74.41539001 86.55667114 74.41539001 86.55667114 72.29429626 89.00198364 C71.5505072 89.87210083 70.80671814 90.74221802 70.04039001 91.63870239 C69.31980408 92.45983521 68.59921814 93.28096802 67.85679626 94.12698364 C67.06982361 95.09571411 67.06982361 95.09571411 66.26695251 96.08401489 C62.56007789 100.63289428 58.39309568 104.41749742 53.85679626 108.12698364 C52.41626892 109.30647583 52.41626892 109.30647583 50.94664001 110.50979614 C35.11899542 123.20226017 19.23646456 131.80048562 -1.63148499 129.90042114 C-3.47254942 129.67151437 -5.30874382 129.40388325 -7.14320374 129.12698364 C-7.14320374 132.75698364 -7.14320374 136.38698364 -7.14320374 140.12698364 C2.73665326 142.59694789 14.05703081 141.58765468 23.85679626 139.12698364 C24.81199158 138.90526489 25.76718689 138.68354614 26.75132751 138.45510864 C48.47841829 132.66121777 67.42407431 118.30528404 84.00132751 103.62307739 C86.85679626 101.12698364 86.85679626 101.12698364 89.24351501 99.41213989 C90.04208923 98.77598755 90.04208923 98.77598755 90.85679626 98.12698364 C90.85679626 97.46698364 90.85679626 96.80698364 90.85679626 96.12698364 C91.51679626 96.12698364 92.17679626 96.12698364 92.85679626 96.12698364 C92.85679626 95.46698364 92.85679626 94.80698364 92.85679626 94.12698364 C93.44074158 93.87819458 94.02468689 93.62940552 94.62632751 93.37307739 C97.1699591 91.95202927 98.65087324 90.39505449 100.54429626 88.18948364 C101.14628845 87.49983521 101.74828064 86.81018677 102.36851501 86.09963989 C104.04398387 84.09696393 104.04398387 84.09696393 104.85679626 81.12698364 C104.52679626 80.46698364 104.19679626 79.80698364 103.85679626 79.12698364 C103.19679626 79.12698364 102.53679626 79.12698364 101.85679626 79.12698364 C101.6080072 78.55335083 101.35921814 77.97971802 101.10289001 77.38870239 C94.79064705 65.93168459 80.47897924 57.26521448 69.85679626 50.12698364 C69.20839783 49.67194458 68.55999939 49.21690552 67.89195251 48.74807739 C62.51954516 45.04102223 57.07874975 42.12187364 51.10679626 39.50198364 C49.79908264 38.92178467 49.79908264 38.92178467 48.46495056 38.3298645 C41.71446951 35.38763488 35.00078922 32.95357275 27.85679626 31.12698364 C27.05242126 30.91557739 26.24804626 30.70417114 25.41929626 30.48635864 C14.65841911 27.87086767 3.85421341 28.0041837 -7.14320374 28.12698364 Z M-74.86585999 72.77151489 C-75.61738342 73.54881958 -76.36890686 74.32612427 -77.14320374 75.12698364 C-78.12546936 76.03963989 -78.12546936 76.03963989 -79.12757874 76.97073364 C-80.00156311 77.79057739 -80.00156311 77.79057739 -80.89320374 78.62698364 C-81.48617249 79.17354614 -82.07914124 79.72010864 -82.69007874 80.28323364 C-84.59464829 82.69978426 -85.02043911 84.03594585 -85.14320374 87.12698364 C-84.2562617 89.79072733 -83.32425079 92.16392489 -82.14320374 94.68948364 C-81.81997131 95.39766235 -81.49673889 96.10584106 -81.16371155 96.83547974 C-76.80270188 106.22076246 -71.66725443 114.70138844 -65.33070374 122.87698364 C-64.85020569 123.4984729 -64.36970764 124.11996216 -63.87464905 124.76028442 C-62.6811829 126.25741105 -61.41769517 127.69820054 -60.14320374 129.12698364 C-59.48320374 129.12698364 -58.82320374 129.12698364 -58.14320374 129.12698364 C-58.14320374 129.78698364 -58.14320374 130.44698364 -58.14320374 131.12698364 C-57.48320374 131.12698364 -56.82320374 131.12698364 -56.14320374 131.12698364 C-56.14320374 131.78698364 -56.14320374 132.44698364 -56.14320374 133.12698364 C-51.87412673 137.64532555 -46.53413421 141.02247484 -41.26820374 144.25198364 C-40.56058899 144.68647827 -39.85297424 145.1209729 -39.12391663 145.56863403 C-29.36756512 151.48520837 -20.34030138 154.17966231 -9.14320374 156.12698364 C-9.14320374 151.50698364 -9.14320374 146.88698364 -9.14320374 142.12698364 C-14.76730828 139.97959827 -20.42313939 138.00206919 -26.14320374 136.12698364 C-28.14320374 135.46031698 -30.14320374 134.79365031 -32.14320374 134.12698364 C-32.14320374 133.46698364 -32.14320374 132.80698364 -32.14320374 132.12698364 C-35.11320374 131.13698364 -35.11320374 131.13698364 -38.14320374 130.12698364 C-38.14320374 129.46698364 -38.14320374 128.80698364 -38.14320374 128.12698364 C-39.69703521 126.59460813 -39.69703521 126.59460813 -41.70570374 125.00198364 C-52.37237983 115.83501596 -61.51664993 102.92310443 -65.14320374 89.12698364 C-65.14320374 85.62698364 -65.14320374 85.62698364 -64.14320374 83.12698364 C-62.83412543 82.41386639 -61.49677722 81.75153232 -60.14320374 81.12698364 C-59.00516911 80.36658984 -57.88400094 79.58042299 -56.77992249 78.77151489 C-41.67550227 67.90889206 -27.40223594 61.77879008 -9.14320374 58.12698364 C-9.14320374 53.17698364 -9.14320374 48.22698364 -9.14320374 43.12698364 C-33.15146366 43.12698364 -58.01695806 56.40608217 -74.86585999 72.77151489 Z M-6.14320374 60.12698364 C-6.47320374 64.08698364 -6.80320374 68.04698364 -7.14320374 72.12698364 C-6.19445374 72.51885864 -5.24570374 72.91073364 -4.26820374 73.31448364 C-2.89269253 73.91748553 -1.51775217 74.52179031 -0.14320374 75.12698364 C1.04982361 75.62005005 1.04982361 75.62005005 2.26695251 76.12307739 C13.6643049 81.21401223 19.07779814 90.45389647 24.85679626 101.12698364 C28.62061903 99.44605309 31.82445283 97.08481497 35.10679626 94.62698364 C35.66109314 94.22350708 36.21539001 93.82003052 36.78648376 93.40432739 C38.18248791 92.36248193 39.52482018 91.24952952 40.85679626 90.12698364 C40.85679626 89.46698364 40.85679626 88.80698364 40.85679626 88.12698364 C41.45492126 87.85885864 42.05304626 87.59073364 42.66929626 87.31448364 C44.87498659 86.11710889 46.29262814 85.0821938 47.85679626 83.12698364 C48.18365496 80.15778152 48.18365496 80.15778152 46.49351501 78.54885864 C33.29524512 67.22849889 19.55995703 59.87082594 1.98179626 60.06448364 C0.80617126 60.07125122 0.80617126 60.07125122 -0.39320374 60.07815552 C-2.30990388 60.08984271 -4.22656422 60.10777456 -6.14320374 60.12698364 Z M-27.01820374 79.37698364 C-28.06750061 79.98026489 -29.11679749 80.58354614 -30.19789124 81.20510864 C-35.84431245 84.56429306 -35.84431245 84.56429306 -39.12757874 89.96292114 C-39.17424221 99.41227399 -31.58799294 108.53979744 -25.35121155 115.12258911 C-21.42715157 119.06690404 -17.19911272 122.72542688 -12.14320374 125.12698364 C-11.15320374 125.12698364 -10.16320374 125.12698364 -9.14320374 125.12698364 C-9.14320374 108.95698364 -9.14320374 92.78698364 -9.14320374 76.12698364 C-19.20261443 75.75428266 -19.20261443 75.75428266 -27.01820374 79.37698364 Z M115.35679626 109.06448364 C112.04396204 112.03340075 112.04396204 112.03340075 109.85679626 113.12698364 C109.85679626 113.78698364 109.85679626 114.44698364 109.85679626 115.12698364 C108.97193542 115.54451904 108.97193542 115.54451904 108.06919861 115.9704895 C106.00380984 117.0501349 104.29483832 118.20506977 102.45835876 119.63088989 C101.82140076 120.11984741 101.18444275 120.60880493 100.52818298 121.11257935 C99.85287537 121.63295776 99.17756775 122.15333618 98.48179626 122.68948364 C86.86789123 131.49579128 75.04716406 138.89950276 61.85679626 145.12698364 C60.94542908 145.57815552 60.03406189 146.02932739 59.09507751 146.49417114 C39.59587534 155.87943736 19.29204465 158.62143388 -2.15492249 158.13479614 C-3.4710553 158.13221802 -4.78718811 158.12963989 -6.14320374 158.12698364 C-7.45582945 159.2125073 -7.45582945 159.2125073 -7.24085999 161.84963989 C-7.22925842 162.95178833 -7.21765686 164.05393677 -7.20570374 165.18948364 C-7.1966803 166.29421021 -7.18765686 167.39893677 -7.17835999 168.53713989 C-7.16675842 169.39178833 -7.15515686 170.24643677 -7.14320374 171.12698364 C28.56350433 183.02921966 89.37249901 158.47714673 121.50914001 142.80276489 C129.07277734 139.01653337 136.36690009 134.91124086 143.54429626 130.43948364 C144.16957214 130.05872681 144.79484802 129.67796997 145.43907166 129.28567505 C147.38203671 128.08552288 147.38203671 128.08552288 149.85679626 126.12698364 C149.85679626 125.13698364 149.85679626 124.14698364 149.85679626 123.12698364 C144.12672642 117.86277314 136.17703941 114.53775522 129.30992126 110.95901489 C127.18244898 109.83029939 125.08044114 108.64980404 123.02867126 107.38870239 C119.32121872 105.23491251 118.31319409 106.40247289 115.35679626 109.06448364 Z " fill="#F2F2F2" transform="translate(198.14320373535156,97.87301635742188)"/>
<path d="M0 0 C0.74491538 -0.00085442 1.48983076 -0.00170885 2.25731933 -0.00258917 C4.76628668 -0.00424305 7.27518793 0.00127592 9.78414917 0.00672913 C11.5775248 0.00701104 13.37090056 0.00685318 15.16427612 0.00628662 C20.04417739 0.00599882 24.92405425 0.0118927 29.80394983 0.01886058 C34.89955173 0.02509706 39.99515415 0.02569815 45.09075928 0.02688599 C54.74509078 0.02999843 64.399411 0.03821066 74.05373752 0.04823548 C85.04269059 0.0593993 96.03164419 0.06490774 107.02060151 0.06993091 C129.63042965 0.08039333 152.24024776 0.09799111 174.85006714 0.12025452 C174.85006714 0.45025452 174.85006714 0.78025452 174.85006714 1.12025452 C158.76680578 1.29407323 142.68347256 1.46031521 126.60006714 1.62025452 C125.40613594 1.63213177 124.21220474 1.64400902 122.98209381 1.65624619 C90.06274845 1.98174535 57.14613391 2.21746307 24.22506714 2.18275452 C23.40701096 2.1818985 22.58895477 2.18104248 21.74610901 2.18016052 C12.11406817 2.16928746 2.48206888 2.15009611 -7.14993286 2.12025452 C-7.14469604 2.69992981 -7.13945923 3.2796051 -7.13406372 3.87684631 C-7.11318952 6.52047122 -7.1002396 9.16407872 -7.08743286 11.80775452 C-7.07905396 12.71976624 -7.07067505 13.63177795 -7.06204224 14.57142639 C-7.05881958 15.45765686 -7.05559692 16.34388733 -7.05227661 17.25697327 C-7.04703979 18.06867981 -7.04180298 18.88038635 -7.03640747 19.71669006 C-7.15695376 22.26890125 -7.58998386 24.63051588 -8.14993286 27.12025452 C-6.23180786 27.10285217 -6.23180786 27.10285217 -4.27493286 27.08509827 C-2.566601 27.07571183 -0.85826754 27.06661255 0.85006714 27.05775452 C1.68924683 27.04937561 2.52842651 27.0409967 3.39303589 27.03236389 C8.64326053 27.01201418 13.65462376 27.35657245 18.85006714 28.12025452 C18.85006714 28.45025452 18.85006714 28.78025452 18.85006714 29.12025452 C5.98006714 28.62525452 5.98006714 28.62525452 -7.14993286 28.12025452 C-6.65493286 31.09025452 -6.65493286 31.09025452 -6.14993286 34.12025452 C-6.47993286 36.10025452 -6.80993286 38.08025452 -7.14993286 40.12025452 C-2.52993286 40.12025452 2.09006714 40.12025452 6.85006714 40.12025452 C6.85006714 40.45025452 6.85006714 40.78025452 6.85006714 41.12025452 C4.60141989 41.34271427 2.35104091 41.54772008 0.10006714 41.74525452 C-1.15290161 41.86127014 -2.40587036 41.97728577 -3.69680786 42.09681702 C-7.08324856 42.11980191 -8.32607456 41.76322662 -11.14993286 40.12025452 C-13.8398634 40.42403503 -13.8398634 40.42403503 -16.14993286 41.12025452 C-13.50993286 41.45025452 -10.86993286 41.78025452 -8.14993286 42.12025452 C-8.14993286 47.73025452 -8.14993286 53.34025452 -8.14993286 59.12025452 C-2.20993286 59.12025452 3.73006714 59.12025452 9.85006714 59.12025452 C9.85006714 59.45025452 9.85006714 59.78025452 9.85006714 60.12025452 C4.57006714 60.12025452 -0.70993286 60.12025452 -6.14993286 60.12025452 C-6.14993286 64.08025452 -6.14993286 68.04025452 -6.14993286 72.12025452 C-4.16993286 72.78025452 -2.18993286 73.44025452 -0.14993286 74.12025452 C-0.14993286 74.45025452 -0.14993286 74.78025452 -0.14993286 75.12025452 C-2.78993286 75.12025452 -5.42993286 75.12025452 -8.14993286 75.12025452 C-8.14993286 91.95025452 -8.14993286 108.78025452 -8.14993286 126.12025452 C-10.12993286 126.12025452 -12.10993286 126.12025452 -14.14993286 126.12025452 C-14.14993286 126.78025452 -14.14993286 127.44025452 -14.14993286 128.12025452 C-12.82993286 128.45025452 -11.50993286 128.78025452 -10.14993286 129.12025452 C-9.02493286 136.74525452 -9.02493286 136.74525452 -10.14993286 140.12025452 C-9.48993286 140.45025452 -8.82993286 140.78025452 -8.14993286 141.12025452 C-8.14993286 146.40025452 -8.14993286 151.68025452 -8.14993286 157.12025452 C2.41006714 157.12025452 12.97006714 157.12025452 23.85006714 157.12025452 C23.85006714 157.45025452 23.85006714 157.78025452 23.85006714 158.12025452 C17.11822301 158.99712037 10.57153034 159.24412649 3.78756714 159.18275452 C2.82657104 159.1782428 1.86557495 159.17373108 0.87545776 159.16908264 C-1.46636669 159.15743177 -3.80815852 159.13950198 -6.14993286 159.12025452 C-6.47993286 163.08025452 -6.80993286 167.04025452 -7.14993286 171.12025452 C-6.15993286 171.45025452 -5.16993286 171.78025452 -4.14993286 172.12025452 C-5.46993286 172.12025452 -6.78993286 172.12025452 -8.14993286 172.12025452 C-8.14993286 179.38025452 -8.14993286 186.64025452 -8.14993286 194.12025452 C-6.07414948 194.11771667 -3.99836609 194.11517883 -1.85968018 194.11256409 C17.54653492 194.09414475 36.95035188 194.16717371 56.35595942 194.32218361 C60.02064455 194.35116605 63.68534121 194.37861932 67.35003662 194.40626526 C74.22669337 194.45835864 81.10333943 194.51173979 87.97998226 194.56563711 C95.83551057 194.62713995 103.69105027 194.68712571 111.54659104 194.74701214 C127.64776256 194.86979136 143.74891948 194.99438444 159.85006714 195.12025452 C159.85006714 195.45025452 159.85006714 195.78025452 159.85006714 196.12025452 C138.11051505 196.14358786 116.37096502 196.16123584 94.63140297 196.17206669 C84.53794563 196.17722872 74.44449606 196.18426965 64.3510437 196.19569397 C55.5562783 196.20564364 46.76151852 196.21210862 37.96674764 196.21434301 C33.30757347 196.21564963 28.64841539 196.21873246 23.98924637 196.22598457 C19.60793274 196.23274924 15.22664191 196.23487056 10.84532356 196.2333622 C9.23360508 196.23363832 7.62188587 196.23564081 6.01017189 196.23945999 C3.8169335 196.24440419 1.62378222 196.24325009 -0.56945801 196.24050903 C-2.41396577 196.24189172 -2.41396577 196.24189172 -4.29573631 196.24330235 C-7.14993286 196.12025452 -7.14993286 196.12025452 -9.14993286 195.12025452 C-9.14993286 187.86025452 -9.14993286 180.60025452 -9.14993286 173.12025452 C-12.11993286 172.79025452 -15.08993286 172.46025452 -18.14993286 172.12025452 C-38.82994439 168.8313282 -56.63761313 159.64041157 -72.63430786 146.36097717 C-74.08055796 145.17704628 -75.56769539 144.04359346 -77.05618286 142.91322327 C-77.74712036 142.32154358 -78.43805786 141.72986389 -79.14993286 141.12025452 C-79.14993286 140.46025452 -79.14993286 139.80025452 -79.14993286 139.12025452 C-79.74805786 138.85212952 -80.34618286 138.58400452 -80.96243286 138.30775452 C-83.1484114 137.12108045 -84.5632588 136.02426339 -86.14993286 134.12025452 C-86.14993286 133.46025452 -86.14993286 132.80025452 -86.14993286 132.12025452 C-86.80993286 132.12025452 -87.46993286 132.12025452 -88.14993286 132.12025452 C-88.14993286 131.46025452 -88.14993286 130.80025452 -88.14993286 130.12025452 C-88.80993286 130.12025452 -89.46993286 130.12025452 -90.14993286 130.12025452 C-91.91670899 128.01300591 -93.54343456 125.90866557 -95.14993286 123.68275452 C-95.63687622 123.01115295 -96.12381958 122.33955139 -96.6255188 121.64759827 C-103.79838401 111.58237382 -109.96654057 100.90435025 -115.39993286 89.80775452 C-115.71220825 89.19158264 -116.02448364 88.57541077 -116.34622192 87.94056702 C-117.54078607 85.39482125 -118.31075916 83.74543844 -117.59524536 80.96400452 C-93.27089879 49.93402727 -47.65085416 32.15853845 -10.14993286 26.12025452 C-9.81993286 17.87025452 -9.48993286 9.62025452 -9.14993286 1.12025452 C-6.20360765 -0.35290809 -3.22928373 -0.01339318 0 0 Z M-74.87258911 72.76478577 C-75.62411255 73.54209045 -76.37563599 74.31939514 -77.14993286 75.12025452 C-78.13219849 76.03291077 -78.13219849 76.03291077 -79.13430786 76.96400452 C-80.00829224 77.78384827 -80.00829224 77.78384827 -80.89993286 78.62025452 C-81.49290161 79.16681702 -82.08587036 79.71337952 -82.69680786 80.27650452 C-84.60137741 82.69305513 -85.02716824 84.02921673 -85.14993286 87.12025452 C-84.26299082 89.78399821 -83.33097992 92.15719577 -82.14993286 94.68275452 C-81.82670044 95.39093323 -81.50346802 96.09911194 -81.17044067 96.82875061 C-76.809431 106.21403333 -71.67398355 114.69465931 -65.33743286 122.87025452 C-64.85693481 123.49174377 -64.37643677 124.11323303 -63.88137817 124.7535553 C-62.68791203 126.25068192 -61.4244243 127.69147141 -60.14993286 129.12025452 C-59.48993286 129.12025452 -58.82993286 129.12025452 -58.14993286 129.12025452 C-58.14993286 129.78025452 -58.14993286 130.44025452 -58.14993286 131.12025452 C-57.48993286 131.12025452 -56.82993286 131.12025452 -56.14993286 131.12025452 C-56.14993286 131.78025452 -56.14993286 132.44025452 -56.14993286 133.12025452 C-51.88085586 137.63859643 -46.54086334 141.01574572 -41.27493286 144.24525452 C-40.56731812 144.67974915 -39.85970337 145.11424377 -39.13064575 145.56190491 C-29.37429424 151.47847925 -20.34703051 154.17293319 -9.14993286 156.12025452 C-9.14993286 151.50025452 -9.14993286 146.88025452 -9.14993286 142.12025452 C-14.77403741 139.97286914 -20.42986852 137.99534007 -26.14993286 136.12025452 C-28.14993286 135.45358785 -30.14993286 134.78692118 -32.14993286 134.12025452 C-32.14993286 133.46025452 -32.14993286 132.80025452 -32.14993286 132.12025452 C-35.11993286 131.13025452 -35.11993286 131.13025452 -38.14993286 130.12025452 C-38.14993286 129.46025452 -38.14993286 128.80025452 -38.14993286 128.12025452 C-39.70376434 126.587879 -39.70376434 126.587879 -41.71243286 124.99525452 C-52.37910896 115.82828683 -61.52337905 102.9163753 -65.14993286 89.12025452 C-65.14993286 85.62025452 -65.14993286 85.62025452 -64.14993286 83.12025452 C-62.84085456 82.40713726 -61.50350634 81.7448032 -60.14993286 81.12025452 C-59.01189824 80.35986071 -57.89073006 79.57369386 -56.78665161 78.76478577 C-41.6822314 67.90216294 -27.40896506 61.77206096 -9.14993286 58.12025452 C-9.14993286 53.17025452 -9.14993286 48.22025452 -9.14993286 43.12025452 C-33.15819279 43.12025452 -58.02368718 56.39935305 -74.87258911 72.76478577 Z M-27.02493286 79.37025452 C-28.07422974 79.97353577 -29.12352661 80.57681702 -30.20462036 81.19837952 C-35.85104157 84.55756393 -35.85104157 84.55756393 -39.13430786 89.95619202 C-39.18097133 99.40554486 -31.59472207 108.53306832 -25.35794067 115.11585999 C-21.4338807 119.06017491 -17.20584185 122.71869775 -12.14993286 125.12025452 C-11.15993286 125.12025452 -10.16993286 125.12025452 -9.14993286 125.12025452 C-9.14993286 108.95025452 -9.14993286 92.78025452 -9.14993286 76.12025452 C-19.20934356 75.74755354 -19.20934356 75.74755354 -27.02493286 79.37025452 Z " fill="#DAD9D9" transform="translate(198.14993286132813,97.87974548339844)"/>
<path d="M0 0 C0.33 0 0.66 0 1 0 C1.33 1.98 1.66 3.96 2 6 C2.55349121 5.98952637 3.10698242 5.97905273 3.67724609 5.96826172 C33.54917046 5.47713122 55.19492264 15.41830982 77 36 C77.78117187 36.71671875 78.56234375 37.4334375 79.3671875 38.171875 C80.45386719 39.20054687 80.45386719 39.20054687 81.5625 40.25 C82.20316406 40.85328125 82.84382813 41.4565625 83.50390625 42.078125 C85.3785309 44.48625901 85.92090235 45.94310837 86 49 C84.59375 51.39453125 84.59375 51.39453125 82.5 53.8125 C81.7575 54.68132812 81.015 55.55015625 80.25 56.4453125 C79.5075 57.28835937 78.765 58.13140625 78 59 C77.401875 59.71929687 76.80375 60.43859375 76.1875 61.1796875 C72.17406283 65.9549345 67.83124555 70.06253487 63 74 C62.0409375 74.78503906 61.081875 75.57007813 60.09375 76.37890625 C45.11145866 88.39667563 29.79352981 97.20045385 10 96 C7.23959281 95.50165333 4.69151673 94.81253335 2 94 C2 97.63 2 101.26 2 105 C3.32 105.33 4.64 105.66 6 106 C3.69 106 1.38 106 -1 106 C-1 105.01 -1 104.02 -1 103 C-1.33 102.67 -1.66 102.34 -2 102 C-1.01 101.505 -1.01 101.505 0 101 C-0.33 98.69 -0.66 96.38 -1 94 C-2.32 93.67 -3.64 93.34 -5 93 C-5 92.34 -5 91.68 -5 91 C-3.02 91 -1.04 91 1 91 C1 74.17 1 57.34 1 40 C11.927515 40 15.62066985 40.83054104 22.90234375 47.828125 C34 59.77571116 34 59.77571116 34 66 C34.90363281 65.28972656 35.80726563 64.57945312 36.73828125 63.84765625 C37.92951849 62.91905399 39.12093408 61.99068047 40.3125 61.0625 C41.20485352 60.35963867 41.20485352 60.35963867 42.11523438 59.64257812 C44.72700884 57.61444041 46.83892403 56.05369199 50 55 C50 54.34 50 53.68 50 53 C50.969375 52.195625 51.93875 51.39125 52.9375 50.5625 C56.19375327 48.29315623 56.19375327 48.29315623 57 45 C55.68 44.34 54.36 43.68 53 43 C53 42.34 53 41.68 53 41 C52.1646875 40.60748047 52.1646875 40.60748047 51.3125 40.20703125 C48.74093867 38.86478049 46.40849969 37.30391869 44 35.6875 C33.34558645 28.85044317 22.20010487 24.86380341 9.5625 24.375 C8.73556641 24.33632812 7.90863281 24.29765625 7.05664062 24.2578125 C5.03808927 24.16446908 3.01907669 24.08119039 1 24 C1 18.39 1 12.78 1 7 C-2.3 7 -5.6 7 -9 7 C-6.07735566 5.53867783 -4.07536854 4.65900754 -1 4 C-0.67 2.68 -0.34 1.36 0 0 Z " fill="#EEEDED" transform="translate(189,133)"/>
<path d="M0 0 C6.5175 -0.061875 13.035 -0.12375 19.75 -0.1875 C21.78124023 -0.21481201 23.81248047 -0.24212402 25.90527344 -0.27026367 C39.20333061 -0.37456342 51.92755845 -0.03751314 62.4375 9.125 C64 11 64 11 64 13 C64.66 13 65.32 13 66 13 C66.65489373 14.37070781 67.29844963 15.74683444 67.9375 17.125 C68.29714844 17.89070313 68.65679687 18.65640625 69.02734375 19.4453125 C71.46098759 25.8372927 71.21526865 32.50343623 71.25 39.25 C71.270625 40.23613281 71.29125 41.22226562 71.3125 42.23828125 C71.36734985 52.64604102 69.5124652 60.49441444 62.17578125 68.0859375 C53.86214089 75.3995529 44.14235576 75.15701787 33.59375 75.09765625 C32.30839355 75.09614563 32.30839355 75.09614563 30.99707031 75.09460449 C27.83136637 75.08941803 24.66568168 75.07545719 21.5 75.0625 C14.405 75.041875 7.31 75.02125 0 75 C0 50.25 0 25.5 0 0 Z M22 18 C21.97535225 23.53588533 21.95716504 29.071739 21.94506836 34.60766602 C21.94002756 36.4924373 21.93319502 38.37720465 21.92456055 40.26196289 C21.91248383 42.96501636 21.90676932 45.66801831 21.90234375 48.37109375 C21.89718246 49.21900986 21.89202118 50.06692596 21.88670349 50.9405365 C21.88650805 52.96071068 21.93793789 54.98077934 22 57 C22.33 57.33 22.66 57.66 23 58 C25.06477174 57.96159938 27.12826396 57.84339697 29.1875 57.6875 C30.31542969 57.60886719 31.44335938 57.53023438 32.60546875 57.44921875 C39.0574056 56.59539512 42.73327641 54.97784419 47 50 C50.75414652 44.42165552 49.93659381 35.45849476 49 29 C47.09311786 24.15475499 44.25474333 21.83649555 40 19 C36.31293322 17.67963149 32.62901997 17.90158315 28.75 17.9375 C26.85507812 17.95103516 26.85507812 17.95103516 24.921875 17.96484375 C23.95765625 17.97644531 22.9934375 17.98804688 22 18 Z " fill="#F2F1F0" transform="translate(250,326)"/>
<path d="M0 0 C1.3580928 -0.01441132 1.3580928 -0.01441132 2.74362183 -0.02911377 C3.73202057 -0.03336365 4.72041931 -0.03761353 5.73876953 -0.04199219 C6.75448029 -0.04769226 7.77019104 -0.05339233 8.81668091 -0.05926514 C10.97722324 -0.06873839 13.13778017 -0.07525829 15.29833984 -0.07910156 C18.57302045 -0.08872449 21.84705116 -0.11969095 25.12158203 -0.15136719 C27.22314081 -0.15790541 29.32470408 -0.16315266 31.42626953 -0.16699219 C32.39442596 -0.17933899 33.3625824 -0.19168579 34.3600769 -0.20440674 C43.6373945 -0.17468996 53.4456506 1.24837027 60.45361328 7.74316406 C67.67237133 15.20508028 70.20286247 23.78639992 70.19976807 34.03068542 C70.17912292 35.06760025 70.15847778 36.10451508 70.13720703 37.17285156 C70.13154724 38.26708939 70.12588745 39.36132721 70.12005615 40.48872375 C70.09788046 43.94249473 70.04771925 47.3951818 69.99658203 50.84863281 C69.97649275 53.20734166 69.95824627 55.56606697 69.94189453 57.92480469 C69.90149956 63.6709887 69.82317057 69.4148649 69.74658203 75.16113281 C62.48658203 75.16113281 55.22658203 75.16113281 47.74658203 75.16113281 C47.72080078 72.07769531 47.69501953 68.99425781 47.66845703 65.81738281 C47.62998137 62.8120839 47.58483888 59.80695335 47.5390625 56.80175781 C47.51093704 54.72241329 47.48968082 52.64296352 47.47558594 50.56347656 C47.45403965 47.5642339 47.40732928 44.56624536 47.35595703 41.56738281 C47.35472839 40.64622681 47.35349976 39.7250708 47.35223389 38.77600098 C47.22443615 33.07066095 46.56782091 27.65901863 42.74658203 23.16113281 C35.54420115 19.96643778 35.54420115 19.96643778 17.74658203 20.16113281 C17.74658203 38.31113281 17.74658203 56.46113281 17.74658203 75.16113281 C10.48658203 75.16113281 3.22658203 75.16113281 -4.25341797 75.16113281 C-6.15512501 73.25942577 -5.38126003 69.88265568 -5.3828125 67.36230469 C-5.38456482 66.6517543 -5.38631714 65.94120392 -5.38812256 65.2091217 C-5.39254074 62.8493509 -5.38960322 60.48965444 -5.38623047 58.12988281 C-5.38690352 56.49702948 -5.38787355 54.86417624 -5.38912964 53.23132324 C-5.39060657 49.8047592 -5.38845223 46.37822118 -5.38378906 42.95166016 C-5.37809177 38.5495878 -5.38137081 34.1475764 -5.38736153 29.74550629 C-5.39096728 26.37245216 -5.38982849 22.99941259 -5.38723373 19.62635803 C-5.3865645 18.00277194 -5.38739275 16.37918455 -5.38971329 14.75559998 C-5.39224005 12.49035111 -5.38839891 10.22520231 -5.3828125 7.95996094 C-5.38201691 6.6683606 -5.38122131 5.37676025 -5.38040161 4.04602051 C-5.18458581 -0.40263582 -4.04276454 0.03452438 0 0 Z " fill="#ECEBEB" transform="translate(60.25341796875,325.8388671875)"/>
<path d="M0 0 C9.57 0 19.14 0 29 0 C31.475 6.435 31.475 6.435 34 13 C35.65101373 17.007765 37.31274116 21.00772468 39 25 C50.36347455 51.998932 50.36347455 51.998932 55 65 C55.3815625 66.04929687 55.763125 67.09859375 56.15625 68.1796875 C57 71 57 71 57 75 C49.41 75 41.82 75 34 75 C32.68 71.04 31.36 67.08 30 63 C19.11 62.67 8.22 62.34 -3 62 C-3.33 63.98 -3.66 65.96 -4 68 C-4.99 70.31 -5.98 72.62 -7 75 C-13.93 75 -20.86 75 -28 75 C-29.24155139 71.27534584 -28.63748862 70.56974304 -27.0625 67.0625 C-26.5984375 65.99773437 -26.134375 64.93296875 -25.65625 63.8359375 C-25.39328125 63.23362305 -25.1303125 62.63130859 -24.859375 62.01074219 C-23.18768246 58.09936157 -21.63353268 54.14011957 -20.0625 50.1875 C-19.36995278 48.44915455 -18.67724543 46.7108729 -17.984375 44.97265625 C-17.64857422 44.12977051 -17.31277344 43.28688477 -16.96679688 42.41845703 C-16.09333132 40.23346971 -15.21293082 38.05150808 -14.328125 35.87109375 C-11.48220676 28.84450181 -8.80901743 21.7891942 -6.37109375 14.609375 C-4.48448588 9.64292008 -2.19841801 4.83651961 0 0 Z M13 18 C12.80365967 18.56920166 12.60731934 19.13840332 12.4050293 19.72485352 C11.50184463 22.33832969 10.59470188 24.95041572 9.6875 27.5625 C9.37876953 28.45775391 9.07003906 29.35300781 8.75195312 30.27539062 C7.37452769 34.23367636 5.98212661 38.13793313 4.26953125 41.96484375 C2.80706019 44.91294673 2.80706019 44.91294673 3 48 C10.26 47.67 17.52 47.34 25 47 C24.36191406 45.24171875 23.72382813 43.4834375 23.06640625 41.671875 C22.23166786 39.36462058 21.39703809 37.05732687 20.5625 34.75 C19.93118164 33.01169922 19.93118164 33.01169922 19.28710938 31.23828125 C18.88427734 30.12324219 18.48144531 29.00820313 18.06640625 27.859375 C17.5086853 26.31975098 17.5086853 26.31975098 16.93969727 24.74902344 C16.17286392 22.50570219 15.52420837 20.30941568 15 18 C14.34 18 13.68 18 13 18 Z " fill="#E9E7E7" transform="translate(387,326)"/>
<path d="M0 0 C7.59 0 15.18 0 23 0 C25.02190728 6.06572185 26.9266743 12.08248061 28.62890625 18.234375 C29.11131078 19.95964027 29.59373317 21.68490054 30.07617188 23.41015625 C30.82299065 26.09141058 31.5688713 28.77292343 32.31420898 31.45458984 C33.04179674 34.06933602 33.77271947 36.68313338 34.50390625 39.296875 C34.72478409 40.09591248 34.94566193 40.89494995 35.17323303 41.71820068 C36.25476851 45.58069797 37.40728106 49.30868841 39 53 C39.35191406 51.7625 39.70382813 50.525 40.06640625 49.25 C41.7042717 43.49808624 43.35091896 37.74870714 45 32 C45.30454102 30.93700684 45.60908203 29.87401367 45.92285156 28.77880859 C46.84075025 25.58064108 47.76349199 22.38390719 48.6875 19.1875 C48.97246338 18.19298828 49.25742676 17.19847656 49.55102539 16.17382812 C51.14554072 10.6771057 52.91231957 5.32957692 55 0 C58.47914941 -0.02887814 61.95826831 -0.04675687 65.4375 -0.0625 C66.92733398 -0.07506836 66.92733398 -0.07506836 68.44726562 -0.08789062 C69.39150391 -0.09111328 70.33574219 -0.09433594 71.30859375 -0.09765625 C72.62041626 -0.10551147 72.62041626 -0.10551147 73.95874023 -0.11352539 C76 0 76 0 77 1 C76.50635121 6.90811408 74.78590188 12.26556808 72.9375 17.875 C72.30198444 19.83590545 71.66657182 21.79684427 71.03125 23.7578125 C70.69867188 24.7777832 70.36609375 25.79775391 70.0234375 26.84863281 C68.64867892 31.08178732 67.30079182 35.32332006 65.95166016 39.56469727 C63.20099524 48.20406297 60.42094147 56.8331425 57.5625 65.4375 C57.31556396 66.18290039 57.06862793 66.92830078 56.81420898 67.69628906 C55.12386126 72.75227748 55.12386126 72.75227748 54 75 C43.77 75 33.54 75 23 75 C21.09809912 70.56223127 19.4218311 66.47968205 17.984375 61.9296875 C17.62359863 60.7957959 17.26282227 59.6619043 16.89111328 58.49365234 C16.5145459 57.29949707 16.13797852 56.1053418 15.75 54.875 C14.95147631 52.36427925 14.15198767 49.8538652 13.3515625 47.34375 C12.95614258 46.10367188 12.56072266 44.86359375 12.15332031 43.5859375 C10.25420916 37.68116514 8.28435871 31.80050216 6.29589844 25.92529297 C4.63568534 20.99711393 3.09669458 16.04677386 1.64404297 11.05322266 C1.04884955 8.96518619 1.04884955 8.96518619 0 7 C0 4.69 0 2.38 0 0 Z " fill="#E8E7E6" transform="translate(132,326)"/>
<path d="M0 0 C1.92875977 0.02030273 1.92875977 0.02030273 3.89648438 0.04101562 C7.03560855 0.07602444 10.17382061 0.12512942 13.3125 0.1875 C13.3125 0.5175 13.3125 0.8475 13.3125 1.1875 C8.0325 1.1875 2.7525 1.1875 -2.6875 1.1875 C-2.6875 5.1475 -2.6875 9.1075 -2.6875 13.1875 C-0.7075 13.8475 1.2725 14.5075 3.3125 15.1875 C3.3125 15.5175 3.3125 15.8475 3.3125 16.1875 C0.6725 16.1875 -1.9675 16.1875 -4.6875 16.1875 C-4.6875 33.0175 -4.6875 49.8475 -4.6875 67.1875 C-6.6675 67.1875 -8.6475 67.1875 -10.6875 67.1875 C-10.6875 67.8475 -10.6875 68.5075 -10.6875 69.1875 C-9.3675 69.5175 -8.0475 69.8475 -6.6875 70.1875 C-5.40178571 78.75892857 -5.40178571 78.75892857 -6.6875 82.1875 C-14.61786854 81.34384377 -21.65509775 78.97417814 -28.6875 75.1875 C-28.6875 74.5275 -28.6875 73.8675 -28.6875 73.1875 C-29.30625 73.043125 -29.925 72.89875 -30.5625 72.75 C-32.6875 72.1875 -32.6875 72.1875 -34.6875 71.1875 C-34.6875 70.5275 -34.6875 69.8675 -34.6875 69.1875 C-35.25984375 68.93613281 -35.8321875 68.68476563 -36.421875 68.42578125 C-49.52237612 61.26567978 -57.7126398 43.69390778 -62.6875 30.1875 C-62.59207187 27.1337999 -61.67455463 26.17337339 -59.58984375 23.8984375 C-42.98544114 8.38907625 -22.67659353 -0.45846923 0 0 Z M-23.5625 20.4375 C-24.61179687 21.04078125 -25.66109375 21.6440625 -26.7421875 22.265625 C-32.38860871 25.62480942 -32.38860871 25.62480942 -35.671875 31.0234375 C-35.71853847 40.47279034 -28.13228921 49.6003138 -21.89550781 56.18310547 C-17.97144784 60.1274204 -13.74340898 63.78594323 -8.6875 66.1875 C-7.6975 66.1875 -6.7075 66.1875 -5.6875 66.1875 C-5.6875 50.0175 -5.6875 33.8475 -5.6875 17.1875 C-15.7469107 16.81479902 -15.7469107 16.81479902 -23.5625 20.4375 Z " fill="#EAE9E9" transform="translate(194.6875,156.8125)"/>
<path d="M0 0 C1.40958984 -0.00193359 1.40958984 -0.00193359 2.84765625 -0.00390625 C3.83636719 -0.00003906 4.82507813 0.00382812 5.84375 0.0078125 C7.32681641 0.00201172 7.32681641 0.00201172 8.83984375 -0.00390625 C9.77957031 -0.00261719 10.71929687 -0.00132812 11.6875 0 C12.55568359 0.00112793 13.42386719 0.00225586 14.31835938 0.00341797 C16.34375 0.1328125 16.34375 0.1328125 17.34375 1.1328125 C17.43818335 3.43335085 17.46117128 5.73683423 17.45727539 8.03930664 C17.45742142 8.76121689 17.45756744 9.48312714 17.4577179 10.22691345 C17.45701869 12.62396197 17.44922595 15.02093373 17.44140625 17.41796875 C17.4395421 19.07563739 17.43811818 20.73330657 17.43711853 22.39097595 C17.43329312 26.76235464 17.42346265 31.13370031 17.41241455 35.50506592 C17.40220092 39.96235711 17.39762101 44.41965361 17.39257812 48.87695312 C17.3818404 57.62892143 17.36476371 66.38086286 17.34375 75.1328125 C13.69793313 75.16168762 10.05214537 75.17956835 6.40625 75.1953125 C4.84487305 75.20788086 4.84487305 75.20788086 3.25195312 75.22070312 C2.26259766 75.22392578 1.27324219 75.22714844 0.25390625 75.23046875 C-1.12075806 75.23832397 -1.12075806 75.23832397 -2.52319336 75.24633789 C-4.65625 75.1328125 -4.65625 75.1328125 -5.65625 74.1328125 C-5.75592586 71.86831871 -5.78424831 69.60067039 -5.78564453 67.33398438 C-5.78739685 66.62343399 -5.78914917 65.91288361 -5.79095459 65.18080139 C-5.79537277 62.82103059 -5.79243525 60.46133413 -5.7890625 58.1015625 C-5.78973555 56.46870916 -5.79070558 54.83585592 -5.79196167 53.20300293 C-5.7934386 49.77643889 -5.79128426 46.34990087 -5.78662109 42.92333984 C-5.7809238 38.52126749 -5.78420284 34.11925609 -5.79019356 29.71718597 C-5.79379931 26.34413185 -5.79266052 22.97109228 -5.79006577 19.59803772 C-5.78939654 17.97445163 -5.79022478 16.35086423 -5.79254532 14.72727966 C-5.79507209 12.4620308 -5.79123094 10.196882 -5.78564453 7.93164062 C-5.78484894 6.64004028 -5.78405334 5.34843994 -5.78323364 4.0177002 C-5.57979408 -0.60415721 -4.18432187 0.0054362 0 0 Z " fill="#E9E7E7" transform="translate(221.65625,325.8671875)"/>
<path d="M0 0 C1.40958984 -0.00193359 1.40958984 -0.00193359 2.84765625 -0.00390625 C3.83636719 -0.00003906 4.82507813 0.00382812 5.84375 0.0078125 C7.32681641 0.00201172 7.32681641 0.00201172 8.83984375 -0.00390625 C9.77957031 -0.00261719 10.71929687 -0.00132812 11.6875 0 C12.55568359 0.00112793 13.42386719 0.00225586 14.31835938 0.00341797 C16.34375 0.1328125 16.34375 0.1328125 17.34375 1.1328125 C17.44342586 3.39730629 17.47174831 5.66495461 17.47314453 7.93164062 C17.47489685 8.64219101 17.47664917 9.35274139 17.47845459 10.08482361 C17.48287277 12.44459441 17.47993525 14.80429087 17.4765625 17.1640625 C17.47723555 18.79691584 17.47820558 20.42976908 17.47946167 22.06262207 C17.4809386 25.48918611 17.47878426 28.91572413 17.47412109 32.34228516 C17.4684238 36.74435751 17.47170284 41.14636891 17.47769356 45.54843903 C17.48129931 48.92149315 17.48016052 52.29453272 17.47756577 55.66758728 C17.47689654 57.29117337 17.47772478 58.91476077 17.48004532 60.53834534 C17.48257209 62.8035942 17.47873094 65.068743 17.47314453 67.33398438 C17.47234894 68.62558472 17.47155334 69.91718506 17.47073364 71.2479248 C17.34375 74.1328125 17.34375 74.1328125 16.34375 75.1328125 C14.79419441 75.23180773 13.24021327 75.26360774 11.6875 75.265625 C10.27791016 75.26755859 10.27791016 75.26755859 8.83984375 75.26953125 C7.35677734 75.26373047 7.35677734 75.26373047 5.84375 75.2578125 C4.85503906 75.26167969 3.86632812 75.26554687 2.84765625 75.26953125 C1.90792969 75.26824219 0.96820313 75.26695312 0 75.265625 C-0.86818359 75.26449707 -1.73636719 75.26336914 -2.63085938 75.26220703 C-4.65625 75.1328125 -4.65625 75.1328125 -5.65625 74.1328125 C-5.75592586 71.86831871 -5.78424831 69.60067039 -5.78564453 67.33398438 C-5.78739685 66.62343399 -5.78914917 65.91288361 -5.79095459 65.18080139 C-5.79537277 62.82103059 -5.79243525 60.46133413 -5.7890625 58.1015625 C-5.78973555 56.46870916 -5.79070558 54.83585592 -5.79196167 53.20300293 C-5.7934386 49.77643889 -5.79128426 46.34990087 -5.78662109 42.92333984 C-5.7809238 38.52126749 -5.78420284 34.11925609 -5.79019356 29.71718597 C-5.79379931 26.34413185 -5.79266052 22.97109228 -5.79006577 19.59803772 C-5.78939654 17.97445163 -5.79022478 16.35086423 -5.79254532 14.72727966 C-5.79507209 12.4620308 -5.79123094 10.196882 -5.78564453 7.93164062 C-5.78484894 6.64004028 -5.78405334 5.34843994 -5.78323364 4.0177002 C-5.57979408 -0.60415721 -4.18432187 0.0054362 0 0 Z " fill="#F7F6F5" transform="translate(334.65625,325.8671875)"/>
<path d="M0 0 C1.40958984 -0.00193359 1.40958984 -0.00193359 2.84765625 -0.00390625 C3.83636719 -0.00003906 4.82507813 0.00382812 5.84375 0.0078125 C7.32681641 0.00201172 7.32681641 0.00201172 8.83984375 -0.00390625 C9.77957031 -0.00261719 10.71929687 -0.00132812 11.6875 0 C12.55568359 0.00112793 13.42386719 0.00225586 14.31835938 0.00341797 C16.34375 0.1328125 16.34375 0.1328125 17.34375 1.1328125 C17.44342586 3.39730629 17.47174831 5.66495461 17.47314453 7.93164062 C17.47489685 8.64219101 17.47664917 9.35274139 17.47845459 10.08482361 C17.48287277 12.44459441 17.47993525 14.80429087 17.4765625 17.1640625 C17.47723555 18.79691584 17.47820558 20.42976908 17.47946167 22.06262207 C17.4809386 25.48918611 17.47878426 28.91572413 17.47412109 32.34228516 C17.4684238 36.74435751 17.47170284 41.14636891 17.47769356 45.54843903 C17.48129931 48.92149315 17.48016052 52.29453272 17.47756577 55.66758728 C17.47689654 57.29117337 17.47772478 58.91476077 17.48004532 60.53834534 C17.48257209 62.8035942 17.47873094 65.068743 17.47314453 67.33398438 C17.47234894 68.62558472 17.47155334 69.91718506 17.47073364 71.2479248 C17.34375 74.1328125 17.34375 74.1328125 16.34375 75.1328125 C14.79419441 75.23180773 13.24021327 75.26360774 11.6875 75.265625 C10.27791016 75.26755859 10.27791016 75.26755859 8.83984375 75.26953125 C7.35677734 75.26373047 7.35677734 75.26373047 5.84375 75.2578125 C4.85503906 75.26167969 3.86632812 75.26554687 2.84765625 75.26953125 C1.90792969 75.26824219 0.96820313 75.26695312 0 75.265625 C-0.86818359 75.26449707 -1.73636719 75.26336914 -2.63085938 75.26220703 C-4.65625 75.1328125 -4.65625 75.1328125 -5.65625 74.1328125 C-5.75592586 71.86831871 -5.78424831 69.60067039 -5.78564453 67.33398438 C-5.78739685 66.62343399 -5.78914917 65.91288361 -5.79095459 65.18080139 C-5.79537277 62.82103059 -5.79243525 60.46133413 -5.7890625 58.1015625 C-5.78973555 56.46870916 -5.79070558 54.83585592 -5.79196167 53.20300293 C-5.7934386 49.77643889 -5.79128426 46.34990087 -5.78662109 42.92333984 C-5.7809238 38.52126749 -5.78420284 34.11925609 -5.79019356 29.71718597 C-5.79379931 26.34413185 -5.79266052 22.97109228 -5.79006577 19.59803772 C-5.78939654 17.97445163 -5.79022478 16.35086423 -5.79254532 14.72727966 C-5.79507209 12.4620308 -5.79123094 10.196882 -5.78564453 7.93164062 C-5.78484894 6.64004028 -5.78405334 5.34843994 -5.78323364 4.0177002 C-5.57979408 -0.60415721 -4.18432187 0.0054362 0 0 Z M-3.65625 2.1328125 C-3.65625 25.8928125 -3.65625 49.6528125 -3.65625 74.1328125 C2.94375 74.1328125 9.54375 74.1328125 16.34375 74.1328125 C16.34375 50.3728125 16.34375 26.6128125 16.34375 2.1328125 C9.74375 2.1328125 3.14375 2.1328125 -3.65625 2.1328125 Z " fill="#95908E" transform="translate(334.65625,325.8671875)"/>
<path d="M0 0 C6.5175 -0.061875 13.035 -0.12375 19.75 -0.1875 C21.78124023 -0.21481201 23.81248047 -0.24212402 25.90527344 -0.27026367 C36.79633616 -0.35575051 47.13987848 -0.23872296 57 5 C55 6 55 6 53.21290588 5.45939636 C52.49755173 5.17397476 51.78219757 4.88855316 51.04516602 4.59448242 C45.74219993 2.73549882 40.85886389 2.52593349 35.27734375 2.48828125 C34.40178833 2.47164429 33.52623291 2.45500732 32.62414551 2.43786621 C29.39550075 2.38061925 26.16645762 2.34795279 22.9375 2.3125 C15.698125 2.209375 8.45875 2.10625 1 2 C1 25.76 1 49.52 1 74 C6.8575 73.855625 12.715 73.71125 18.75 73.5625 C21.48361816 73.49784546 21.48361816 73.49784546 24.27246094 73.43188477 C32.87870834 73.21577643 41.42964786 72.87529286 50 72 C50.495 70.02 50.495 70.02 51 68 C51.66 68 52.32 68 53 68 C53 68.66 53 69.32 53 70 C53.99 70 54.98 70 56 70 C56 69.34 56 68.68 56 68 C57.32 68.66 58.64 69.32 60 70 C58.84239068 70.66193086 57.6731617 71.30354146 56.5 71.9375 C55.52546875 72.47697266 55.52546875 72.47697266 54.53125 73.02734375 C47.94599724 75.5577881 40.54599827 75.13677959 33.59375 75.09765625 C32.30839355 75.09614563 32.30839355 75.09614563 30.99707031 75.09460449 C27.83136637 75.08941803 24.66568168 75.07545719 21.5 75.0625 C14.405 75.041875 7.31 75.02125 0 75 C0 50.25 0 25.5 0 0 Z " fill="#BFB9B9" transform="translate(250,326)"/>
<path d="M0 0 C1.3580928 -0.01441132 1.3580928 -0.01441132 2.74362183 -0.02911377 C3.73202057 -0.03336365 4.72041931 -0.03761353 5.73876953 -0.04199219 C6.75448029 -0.04769226 7.77019104 -0.05339233 8.81668091 -0.05926514 C10.97722324 -0.06873839 13.13778017 -0.07525829 15.29833984 -0.07910156 C18.57302045 -0.08872449 21.84705116 -0.11969095 25.12158203 -0.15136719 C27.22314081 -0.15790541 29.32470408 -0.16315266 31.42626953 -0.16699219 C32.39442596 -0.17933899 33.3625824 -0.19168579 34.3600769 -0.20440674 C42.677681 -0.17776408 51.96600908 0.91165698 58.74658203 6.16113281 C59.73658203 7.64613281 59.73658203 7.64613281 60.74658203 9.16113281 C56.87583938 8.63805948 55.44244475 7.85699553 52.74658203 5.16113281 C47.01382911 2.56179535 41.17710074 2.81257431 35.00439453 2.74707031 C34.00786865 2.72942627 33.01134277 2.71178223 31.98461914 2.69360352 C28.28043423 2.63078252 24.57598483 2.58442623 20.87158203 2.53613281 C12.58033203 2.41238281 4.28908203 2.28863281 -4.25341797 2.16113281 C-4.25341797 25.92113281 -4.25341797 49.68113281 -4.25341797 74.16113281 C-4.58341797 74.16113281 -4.91341797 74.16113281 -5.25341797 74.16113281 C-5.27654281 64.66038956 -5.29433377 55.15965593 -5.30523014 45.65889072 C-5.31045866 41.24776277 -5.31755574 36.83665401 -5.32885742 32.42553711 C-5.33968741 28.17212166 -5.34569504 23.91872472 -5.34829521 19.66529655 C-5.35014926 18.03891648 -5.35376949 16.41253747 -5.35914803 14.78616524 C-5.36635995 12.51603088 -5.36740885 10.24597396 -5.36694336 7.97583008 C-5.36916397 6.68121353 -5.37138458 5.38659698 -5.37367249 4.05274963 C-5.1883775 -0.40281779 -4.0471444 0.03456179 0 0 Z " fill="#8C8A87" transform="translate(60.25341796875,325.8388671875)"/>
<path d="M0 0 C5.94 0 11.88 0 18 0 C18 0.33 18 0.66 18 1 C12.72 1 7.44 1 2 1 C2 4.96 2 8.92 2 13 C3.98 13.66 5.96 14.32 8 15 C8 15.33 8 15.66 8 16 C5.36 16 2.72 16 0 16 C0 32.83 0 49.66 0 67 C-1.65 67 -3.3 67 -5 67 C-4.505 66.01 -4.505 66.01 -4 65 C-3.01 65.33 -2.02 65.66 -1 66 C-1 49.83 -1 33.66 -1 17 C-7.435 17.495 -7.435 17.495 -14 18 C-13.67 17.34 -13.34 16.68 -13 16 C-8.68026501 15.39190981 -4.35840246 15.25388752 0 15 C0 10.05 0 5.1 0 0 Z " fill="#6A6969" transform="translate(190,157)"/>
<path d="M0 0 C0.66 0 1.32 0 2 0 C2 0.66 2 1.32 2 2 C2.99 2 3.98 2 5 2 C5 1.34 5 0.68 5 0 C6.32 0.66 7.64 1.32 9 2 C7.84239068 2.66193086 6.6731617 3.30354146 5.5 3.9375 C4.8503125 4.29714844 4.200625 4.65679687 3.53125 5.02734375 C-3.56283251 7.75331064 -11.52491835 7.12331105 -19 7.0625 C-20.06089844 7.05798828 -21.12179687 7.05347656 -22.21484375 7.04882812 C-24.80995598 7.03713843 -27.40494709 7.02075276 -30 7 C-30 6.67 -30 6.34 -30 6 C-15.645 5.01 -15.645 5.01 -1 4 C-0.67 2.68 -0.34 1.36 0 0 Z " fill="#908B8B" transform="translate(301,394)"/>
<path d="M0 0 C5.94 0 11.88 0 18 0 C18 0.33 18 0.66 18 1 C12.72 1 7.44 1 2 1 C2 4.96 2 8.92 2 13 C3.98 13.66 5.96 14.32 8 15 C8 15.33 8 15.66 8 16 C3.38 16 -1.24 16 -6 16 C-6 15.67 -6 15.34 -6 15 C-4.02 15 -2.04 15 0 15 C0 10.05 0 5.1 0 0 Z " fill="#888485" transform="translate(190,157)"/>
<path d="M0 0 C0.66 0.33 1.32 0.66 2 1 C1.42655063 3.86724686 1.1385485 4.8614515 -1 7 C-0.67 7.99 -0.34 8.98 0 10 C-2.475 9.01 -2.475 9.01 -5 8 C-5.33 8.99 -5.66 9.98 -6 11 C-8.47739354 11.90837763 -10.33579484 12 -13 12 C-8.71 8.04 -4.42 4.08 0 0 Z " fill="#AEAEAD" transform="translate(287,196)"/>
<path d="M0 0 C9.57 0 19.14 0 29 0 C28.67 0.66 28.34 1.32 28 2 C19.42 2 10.84 2 2 2 C1.67 3.32 1.34 4.64 1 6 C0.34 6 -0.32 6 -1 6 C-1 6.99 -1 7.98 -1 9 C-1.66 9 -2.32 9 -3 9 C-2.01 6.03 -1.02 3.06 0 0 Z " fill="#7C7575" transform="translate(387,326)"/>
<path d="M0 0 C2.49361571 1.20381448 4.68143083 2.45428722 7 4 C6.68798326 6.04174058 6.37536431 8.08338913 6.0625 10.125 C5.88847656 11.26195312 5.71445312 12.39890625 5.53515625 13.5703125 C5.04410734 16.71732669 4.52981281 19.85930783 4 23 C3.34 23 2.68 23 2 23 C2.01047363 22.44538086 2.02094727 21.89076172 2.03173828 21.31933594 C2.07342004 18.79627041 2.09936438 16.27327747 2.125 13.75 C2.14175781 12.87730469 2.15851563 12.00460937 2.17578125 11.10546875 C2.18222656 10.26113281 2.18867188 9.41679687 2.1953125 8.546875 C2.20578613 7.77182617 2.21625977 6.99677734 2.22705078 6.19824219 C1.97326556 3.74116461 1.22444152 2.12688458 0 0 Z " fill="#A29C9C" transform="translate(296,351)"/>
<path d="M0 0 C-4.21958321 2.19580229 -8.61963325 3.9060215 -13.02734375 5.68359375 C-16.03564196 6.93185839 -16.03564196 6.93185839 -18.75390625 8.72265625 C-19.49511719 9.14417969 -20.23632812 9.56570312 -21 10 C-21.66 9.67 -22.32 9.34 -23 9 C-21.68 8.34 -20.36 7.68 -19 7 C-19 6.01 -19 5.02 -19 4 C-18.34 4 -17.68 4 -17 4 C-16.67 3.34 -16.34 2.68 -16 2 C-14.00390625 1.62109375 -14.00390625 1.62109375 -11.5625 1.4375 C-7.44886406 1.1139556 -4.16450339 -0.10959219 0 0 Z " fill="#A3A1A2" transform="translate(167,145)"/>
<path d="M0 0 C4.10403363 -0.08694042 8.20783129 -0.14037149 12.3125 -0.1875 C13.47974609 -0.21263672 14.64699219 -0.23777344 15.84960938 -0.26367188 C16.96787109 -0.27333984 18.08613281 -0.28300781 19.23828125 -0.29296875 C20.26993408 -0.3086792 21.30158691 -0.32438965 22.36450195 -0.34057617 C25 0 25 0 26.86010742 1.39331055 C28 3 28 3 28 5 C25.0625 4.625 25.0625 4.625 22 4 C21.67 3.34 21.34 2.68 21 2 C14.07 1.67 7.14 1.34 0 1 C0 0.67 0 0.34 0 0 Z " fill="#E4DDDE" transform="translate(390,327)"/>
<path d="M0 0 C0.66 0.66 1.32 1.32 2 2 C1.625 3.9375 1.625 3.9375 1 6 C1 6.99 1 7.98 1 9 C0.38125 8.79375 -0.2375 8.5875 -0.875 8.375 C-1.57625 8.25125 -2.2775 8.1275 -3 8 C-3.66 8.66 -4.32 9.32 -5 10 C-5.99 10 -6.98 10 -8 10 C-8 10.66 -8 11.32 -8 12 C-9.32 12.33 -10.64 12.66 -12 13 C-10.625 11 -10.625 11 -9 9 C-8.34 9 -7.68 9 -7 9 C-7 8.34 -7 7.68 -7 7 C-5.01739574 5.31267723 -3.0167658 3.64633943 -1 2 C-0.67 1.34 -0.34 0.68 0 0 Z " fill="#B5B4B4" transform="translate(246,179)"/>
<path d="M0 0 C0.66 0.33 1.32 0.66 2 1 C1.36191406 1.54269531 0.72382812 2.08539063 0.06640625 2.64453125 C-0.75988281 3.35996094 -1.58617188 4.07539063 -2.4375 4.8125 C-3.26121094 5.52019531 -4.08492188 6.22789062 -4.93359375 6.95703125 C-7.22164759 8.91109686 -7.22164759 8.91109686 -8 12 C-8 12.99 -8 13.98 -8 15 C-8.3062434 16.33981486 -8.63451555 17.67511887 -9 19 C-10.625 16.25 -10.625 16.25 -12 13 C-10.77718483 9.07411971 -7.90244897 6.88931449 -4.875 4.25 C-3.96492188 3.45078125 -3.05484375 2.6515625 -2.1171875 1.828125 C-1.06917969 0.92320312 -1.06917969 0.92320312 0 0 Z " fill="#90918F" transform="translate(92,168)"/>
<path d="M0 0 C5.41538462 -0.36923077 5.41538462 -0.36923077 8.375 1.5 C8.91125 1.995 9.4475 2.49 10 3 C3.375 7 3.375 7 0 7 C0 4.69 0 2.38 0 0 Z " fill="#D3CFD1" transform="translate(264,234)"/>
<path d="M0 0 C0.66 0 1.32 0 2 0 C3.21347198 1.50864084 4.42597055 3.01810084 5.62890625 4.53515625 C7.48446602 6.5175919 9.43490639 7.2162214 12 8 C13 9 13 9 13.0625 12.0625 C13.041875 13.031875 13.02125 14.00125 13 15 C11 13.625 11 13.625 9 12 C9 11.34 9 10.68 9 10 C8.34 10 7.68 10 7 10 C7 9.34 7 8.68 7 8 C6.34 8 5.68 8 5 8 C3.7109375 6.50390625 3.7109375 6.50390625 2.375 4.5625 C1.92898437 3.92441406 1.48296875 3.28632813 1.0234375 2.62890625 C0 1 0 1 0 0 Z " fill="#A5A4A7" transform="translate(103,220)"/>
<path d="M0 0 C1.125 3.75 1.125 3.75 0 6 C5.94 6 11.88 6 18 6 C18 5.01 18 4.02 18 3 C18.99 3 19.98 3 21 3 C20.67 4.32 20.34 5.64 20 7 C13.07 7 6.14 7 -1 7 C-2 4 -2 4 -1.0625 1.8125 C-0.5365625 0.9153125 -0.5365625 0.9153125 0 0 Z " fill="#908B8C" transform="translate(360,394)"/>
<path d="M0 0 C-3.14573677 2.09715785 -5.01456251 2.52004559 -8.6875 3.125 C-10.17830078 3.37636719 -10.17830078 3.37636719 -11.69921875 3.6328125 C-12.45847656 3.75398437 -13.21773437 3.87515625 -14 4 C-13.67 4.99 -13.34 5.98 -13 7 C-13.99 7.33 -14.98 7.66 -16 8 C-16.33 7.34 -16.66 6.68 -17 6 C-17.99 5.34 -18.98 4.68 -20 4 C-17.60612843 3.32550034 -15.21030779 2.66023359 -12.8125 2 C-12.13896484 1.80921875 -11.46542969 1.6184375 -10.77148438 1.421875 C-7.09444844 0.4174164 -3.8149818 -0.23704741 0 0 Z " fill="#A8A8AB" transform="translate(180,126)"/>
<path d="M0 0 C1.32 0 2.64 0 4 0 C2.44499019 3.81684226 -0.03595495 6.19195732 -3 9 C-3.33 8.01 -3.66 7.02 -4 6 C-2.84338843 3.79192337 -1.77322566 1.77322566 0 0 Z " fill="#C7C6C6" transform="translate(269,183)"/>
<path d="M0 0 C1.32 0 2.64 0 4 0 C4.33 2.31 4.66 4.62 5 7 C0.545 10.465 0.545 10.465 -4 14 C-4 11 -4 11 -2.6875 9.53515625 C-1.56378913 8.55451042 -0.43879014 7.57533866 0.6875 6.59765625 C2.42318647 4.82947896 2.42318647 4.82947896 2 1 C1.34 0.67 0.68 0.34 0 0 Z " fill="#969293" transform="translate(300,176)"/>
<path d="M0 0 C6.23408282 0.53742093 11.56840905 1.16314389 15.875 6.1875 C16.24625 6.785625 16.6175 7.38375 17 8 C12.3562753 7.37246964 12.3562753 7.37246964 10.625 5.5625 C8.63668073 3.65065455 6.93722899 3.11133056 4.3125 2.3125 C3.50425781 2.06113281 2.69601563 1.80976563 1.86328125 1.55078125 C1.24839844 1.36902344 0.63351563 1.18726563 0 1 C0 0.67 0 0.34 0 0 Z " fill="#A3A1A1" transform="translate(104,327)"/>
<path d="M0 0 C0 0.66 0 1.32 0 2 C-0.99 2 -1.98 2 -3 2 C-3.33 3.65 -3.66 5.3 -4 7 C-5.97746603 7.73080266 -7.98072489 8.39421747 -10 9 C-10.66 8.67 -11.32 8.34 -12 8 C-10.37982158 6.66081194 -8.75370657 5.3288031 -7.125 4 C-6.22007813 3.2575 -5.31515625 2.515 -4.3828125 1.75 C-2 0 -2 0 0 0 Z " fill="#A4A3A4" transform="translate(106,159)"/>
<path d="M0 0 C-0.54855348 4.571279 -1.41744803 8.67435795 -3 13 C-3.33 13 -3.66 13 -4 13 C-4.08086147 11.20906809 -4.13912702 9.41710372 -4.1875 7.625 C-4.22230469 6.62726563 -4.25710937 5.62953125 -4.29296875 4.6015625 C-4.14794922 3.31378906 -4.14794922 3.31378906 -4 2 C-1 0 -1 0 0 0 Z " fill="#B2B0AE" transform="translate(209,327)"/>
<path d="M0 0 C0.33 0.66 0.66 1.32 1 2 C0.34 2 -0.32 2 -1 2 C-1 3.32 -1 4.64 -1 6 C-1.99 6 -2.98 6 -4 6 C-4.33 6.66 -4.66 7.32 -5 8 C-5.66 7.67 -6.32 7.34 -7 7 C-7 7.66 -7 8.32 -7 9 C-7.99 9 -8.98 9 -10 9 C-10 8.34 -10 7.68 -10 7 C-7.8125 5.2734375 -7.8125 5.2734375 -5 3.375 C-4.071875 2.74335938 -3.14375 2.11171875 -2.1875 1.4609375 C-1.1046875 0.73777344 -1.1046875 0.73777344 0 0 Z " fill="#AFAFAE" transform="translate(144,174)"/>
<path d="M0 0 C5.57142857 5.14285714 5.57142857 5.14285714 6 9 C3.0625 8.1875 3.0625 8.1875 0 7 C-1.04449911 3.86650268 -0.93423645 3.01031744 0 0 Z " fill="#C8C4C3" transform="translate(121,335)"/>
<path d="M0 0 C0.66 0.33 1.32 0.66 2 1 C2.40632091 2.98645776 2.72949547 4.99053778 3 7 C3.32635698 8.66804677 3.65725594 10.33524314 4 12 C3.34 11.67 2.68 11.34 2 11 C2 10.34 2 9.68 2 9 C1.01 9 0.02 9 -1 9 C-1.09765625 2.84765625 -1.09765625 2.84765625 -1 1 C-0.67 0.67 -0.34 0.34 0 0 Z " fill="#A9A7A7" transform="translate(158,186)"/>
<path d="M0 0 C0.66 0.33 1.32 0.66 2 1 C-2.455 4.465 -2.455 4.465 -7 8 C-8 5 -8 5 -7.0625 2.8125 C-6.5365625 1.9153125 -6.5365625 1.9153125 -6 1 C-5.01 1.33 -4.02 1.66 -3 2 C-2.01 1.34 -1.02 0.68 0 0 Z " fill="#B5B5B4" transform="translate(130,163)"/>
<path d="M0 0 C-1 2 -1 2 -3.375 3.1875 C-6 4 -6 4 -9 3 C-9 2.01 -9 1.02 -9 0 C-5.52176885 -1.15941038 -3.54104422 -0.70820884 0 0 Z " fill="#C5C0BF" transform="translate(260,243)"/>
<path d="M0 0 C2.86207152 1.28299758 5.0245088 2.530636 7 5 C7 5.99 7 6.98 7 8 C7.66 8 8.32 8 9 8 C8.67 8.99 8.34 9.98 8 11 C6 9.1875 6 9.1875 4 7 C4 6.01 4 5.02 4 4 C3.34 4 2.68 4 2 4 C1.34 2.68 0.68 1.36 0 0 Z " fill="#F6F6F5" transform="translate(205,178)"/>
<path d="M0 0 C1.67588141 2.51382212 2.94030311 4.82947288 4.1875 7.5625 C4.55230469 8.34753906 4.91710937 9.13257813 5.29296875 9.94140625 C5.52628906 10.62074219 5.75960937 11.30007812 6 12 C5.67 12.66 5.34 13.32 5 14 C3.046875 12.85546875 3.046875 12.85546875 1 11 C0.390625 8.30078125 0.390625 8.30078125 0.25 5.3125 C0.19328125 4.31863281 0.1365625 3.32476562 0.078125 2.30078125 C0.05234375 1.54152344 0.0265625 0.78226563 0 0 Z " fill="#959594" transform="translate(113,185)"/>
<path d="M0 0 C2.93200474 2.85276137 5.64315404 5.65079784 8 9 C7.67 9.66 7.34 10.32 7 11 C5.68 10.67 4.36 10.34 3 10 C3 8.68 3 7.36 3 6 C2.34 5.67 1.68 5.34 1 5 C0.375 2.4375 0.375 2.4375 0 0 Z " fill="#A9AAA9" transform="translate(211,181)"/>
<path d="M0 0 C0.66 0.33 1.32 0.66 2 1 C1.34 1.66 0.68 2.32 0 3 C0.66 4.32 1.32 5.64 2 7 C0.824375 6.505 0.824375 6.505 -0.375 6 C-2.84332497 4.88133489 -2.84332497 4.88133489 -5 5 C-5.33 5.99 -5.66 6.98 -6 8 C-6.99 7.34 -7.98 6.68 -9 6 C-6.03 4.02 -3.06 2.04 0 0 Z " fill="#A4A2A2" transform="translate(261,217)"/>
<path d="M0 0 C0.66 0.33 1.32 0.66 2 1 C1.42655063 3.86724686 1.1385485 4.8614515 -1 7 C-0.67 7.99 -0.34 8.98 0 10 C-1.32 9.34 -2.64 8.68 -4 8 C-2.25 2.25 -2.25 2.25 0 0 Z " fill="#CFCDCC" transform="translate(287,196)"/>
<path d="M0 0 C0 3.96679333 -1.279315 5.20374041 -4 8 C-5.32 8 -6.64 8 -8 8 C-8.33 6.68 -8.66 5.36 -9 4 C-8.67 4.66 -8.34 5.32 -8 6 C-5.36 4.02 -2.72 2.04 0 0 Z " fill="#939292" transform="translate(231,193)"/>
<path d="M0 0 C2.125 0.9375 2.125 0.9375 4 2 C3.67 3.32 3.34 4.64 3 6 C1.68 6.33 0.36 6.66 -1 7 C-1.33 5.02 -1.66 3.04 -2 1 C-1.34 0.67 -0.68 0.34 0 0 Z " fill="#F4F4F3" transform="translate(91,193)"/>
<path d="M0 0 C3.46704871 0.9534384 5.6567524 2.28676594 8 5 C3.55129785 5.39253254 0.85756507 4.15305957 -3 2 C-2.01 1.34 -1.02 0.68 0 0 Z " fill="#A8A5A6" transform="translate(173,232)"/>
<path d="M0 0 C3.99455527 0.61454696 6.74466336 2.70646737 10 5 C5.82412255 6.39195915 3.86525224 4.82323219 0 3 C0 2.01 0 1.02 0 0 Z " fill="#B7B7B7" transform="translate(241,151)"/>
<path d="M0 0 C1 3 1 3 -0.4375 6.1875 C-1.2109375 7.5796875 -1.2109375 7.5796875 -2 9 C-3.125 7.25 -3.125 7.25 -4 5 C-3.07451225 2.30066074 -2.57626463 1.28813232 0 0 Z " fill="#BFBABA" transform="translate(318,381)"/>
<path d="M0 0 C0.33 0 0.66 0 1 0 C1 2.31 1 4.62 1 7 C-2.3 7 -5.6 7 -9 7 C-6.07735566 5.53867783 -4.07536854 4.65900754 -1 4 C-0.67 2.68 -0.34 1.36 0 0 Z " fill="#FDF7F9" transform="translate(189,133)"/>
<path d="M0 0 C0.66 1.32 1.32 2.64 2 4 C0.25 5.5625 0.25 5.5625 -2 7 C-4.25 6.6875 -4.25 6.6875 -6 6 C-5.38125 5.7525 -4.7625 5.505 -4.125 5.25 C-1.64931313 3.79371361 -1.04874998 2.62187494 0 0 Z " fill="#AEABAB" transform="translate(297,375)"/>
<path d="M0 0 C2.64 0 5.28 0 8 0 C4.76478258 2.48862878 1.40739705 4.75421558 -2 7 C-1.34 4.69 -0.68 2.38 0 0 Z " fill="#A3A1A0" transform="translate(164,177)"/>
<path d="M0 0 C1.98 0 3.96 0 6 0 C6.99 2.31 7.98 4.62 9 7 C5.18315774 5.44499019 2.80804268 2.96404505 0 0 Z " fill="#8D8C8D" transform="translate(280,157)"/>
<path d="M0 0 C0.66 0 1.32 0 2 0 C5.01704885 3.1999003 6.49890042 5.61537866 7 10 C3.66442368 7.0094833 1.84916079 4.06815373 0 0 Z M6 3 C8 4 8 4 8 4 Z " fill="#9A9899" transform="translate(94,207)"/>
<path d="M0 0 C3.57104439 1.87949705 5.54744301 3.17053157 7 7 C6.01 6.34 5.02 5.68 4 5 C3.01 5.33 2.02 5.66 1 6 C0.67 4.02 0.34 2.04 0 0 Z " fill="#AEACAA" transform="translate(307,332)"/>
<path d="M0 0 C0.66 0.99 1.32 1.98 2 3 C1.34 4.32 0.68 5.64 0 7 C-0.66 7 -1.32 7 -2 7 C-2.33 7.66 -2.66 8.32 -3 9 C-2.67 6.69 -2.34 4.38 -2 2 C-1.34 2 -0.68 2 0 2 C0 1.34 0 0.68 0 0 Z " fill="#BEBCBC" transform="translate(187,329)"/>
<path d="M0 0 C2.35171131 0.59861742 4.6859378 1.26924352 7 2 C7.33 2.66 7.66 3.32 8 4 C7.67 4.66 7.34 5.32 7 6 C5.68 5.34 4.36 4.68 3 4 C3 3.34 3 2.68 3 2 C2.01 1.67 1.02 1.34 0 1 C0 0.67 0 0.34 0 0 Z " fill="#AFB0AD" transform="translate(239,172)"/>
<path d="M0 0 C1.5625 1.8125 1.5625 1.8125 3 4 C2.67 4.99 2.34 5.98 2 7 C-1.16115776 5.63016497 -1.9927092 5.0109362 -4 2 C-2.68 2.33 -1.36 2.66 0 3 C0 2.01 0 1.02 0 0 Z " fill="#C7C5C5" transform="translate(300,169)"/>
<path d="M0 0 C1.98 0 3.96 0 6 0 C6.33 1.32 6.66 2.64 7 4 C4.03 3.505 4.03 3.505 1 3 C0.67 2.01 0.34 1.02 0 0 Z " fill="#D5D2D1" transform="translate(411,328)"/>
<path d="M0 0 C0 1.65 0 3.3 0 5 C-2.31 5 -4.62 5 -7 5 C-2.25 0 -2.25 0 0 0 Z " fill="#FCF8F7" transform="translate(190,167)"/>
<path d="M0 0 C0.66 0.99 1.32 1.98 2 3 C1.34 3 0.68 3 0 3 C0.33 4.65 0.66 6.3 1 8 C-0.32 8.33 -1.64 8.66 -3 9 C-2.01 6.03 -1.02 3.06 0 0 Z " fill="#B1A6A7" transform="translate(372,364)"/>
<path d="M0 0 C0.99 0.33 1.98 0.66 3 1 C2.67 2.32 2.34 3.64 2 5 C1.34 5 0.68 5 0 5 C0 5.99 0 6.98 0 8 C-0.66 8 -1.32 8 -2 8 C-1.34 5.36 -0.68 2.72 0 0 Z " fill="#ADA8A8" transform="translate(386,327)"/>
<path d="M0 0 C2.64 0 5.28 0 8 0 C7.01 0.495 7.01 0.495 6 1 C6.33 2.32 6.66 3.64 7 5 C3.34683329 3.75023244 2.21934164 3.32901247 0 0 Z " fill="#A09B9A" transform="translate(136,251)"/>
<path d="M0 0 C0.66 0.33 1.32 0.66 2 1 C-1.32307692 4.93846154 -1.32307692 4.93846154 -4.75 5.25 C-5.4925 5.1675 -6.235 5.085 -7 5 C-5.47058649 1.94117299 -3.05780454 1.31048766 0 0 Z " fill="#9B9A9A" transform="translate(250,224)"/>
<path d="M0 0 C2.31 0 4.62 0 7 0 C7.66 1.65 8.32 3.3 9 5 C5.54074837 3.7508258 2.85306797 2.32472205 0 0 Z " fill="#999394" transform="translate(317,203)"/>
<path d="M0 0 C0.99 0 1.98 0 3 0 C3.93065133 2.60582371 4.14917407 3.64198224 3.0625 6.25 C2.5365625 7.11625 2.5365625 7.11625 2 8 C1.34 5.36 0.68 2.72 0 0 Z " fill="#ADAAA8" transform="translate(152,392)"/>
<path d="M0 0 C1.32 1.32 2.64 2.64 4 4 C2.68 4.99 1.36 5.98 0 7 C-0.93423645 3.98968256 -1.04449911 3.13349732 0 0 Z " fill="#D1CDCE" transform="translate(304,208)"/>
</svg>
