<?xml version="1.0" encoding="UTF-8"?>
<svg version="1.1" xmlns="http://www.w3.org/2000/svg" width="505" height="278">
<path d="M0 0 C6.00214262 3.92447787 10.31960845 10.09042228 12.6484375 16.89453125 C14.48267632 27.87958371 12.91897274 37.00627699 6.875 46.25 C-1.61380232 54.36972395 -9.656647 56.57971818 -21.15625 56.3515625 C-26.63704556 55.85027022 -30.47411821 54.0201896 -35 51 C-35.9075 50.443125 -36.815 49.88625 -37.75 49.3125 C-44.68106869 42.18890163 -47.32084983 34.67314986 -47.31030273 24.90185547 C-47.11892652 16.16966187 -44.72791309 10.49544487 -38.8125 4.125 C-27.90365514 -5.86446085 -13.06690077 -7.45625411 0 0 Z " fill="#FEFEFE" transform="translate(127,104)"/>
<path d="M0 0 C4.99416208 3.49591346 8.09109068 6.15229617 10.75 11.75 C11.25015625 12.78125 11.7503125 13.8125 12.265625 14.875 C16.39780731 24.49932336 15.42848534 35.48236891 11.7578125 45.12109375 C8.92038706 51.05148916 4.97358357 55.41254929 -1.10546875 58.0859375 C-9.58831316 60.43843921 -17.07200124 59.23125093 -24.671875 55.0390625 C-26.5 53.75 -26.5 53.75 -27.5 51.75 C-27.83 59.67 -28.16 67.59 -28.5 75.75 C-33.78 75.75 -39.06 75.75 -44.5 75.75 C-44.5 50.67 -44.5 25.59 -44.5 -0.25 C-39.22 -0.25 -33.94 -0.25 -28.5 -0.25 C-28.17 2.06 -27.84 4.37 -27.5 6.75 C-26.79875 5.986875 -26.0975 5.22375 -25.375 4.4375 C-18.23550874 -2.23637227 -9.19632697 -3.28440249 0 0 Z M-23.5 14.75 C-27.52100532 20.20707864 -28.15338849 26.09731716 -27.5 32.75 C-26.55923652 37.25381257 -25.32870983 40.75067344 -22.375 44.3125 C-18.3378772 46.3310614 -14.92746317 46.5308435 -10.5 45.75 C-6.65301769 43.65924874 -4.55364281 41.06469199 -3.0078125 36.93359375 C-1.36134823 29.85379738 -1.54265863 22.63564231 -5.3046875 16.30859375 C-7.14074051 13.91452463 -8.66838085 12.80362573 -11.5 11.75 C-16.47922113 11.21651202 -19.56538376 11.58044803 -23.5 14.75 Z " fill="#FDFDFE" transform="translate(211.5,101.25)"/>
<path d="M0 0 C5.61 0 11.22 0 17 0 C18.6907925 4.92956547 20.38150732 9.85915745 22.07202148 14.78881836 C22.64717062 16.46591753 23.22236563 18.14300097 23.79760742 19.82006836 C24.62430688 22.23026462 25.45084145 24.64051737 26.27734375 27.05078125 C26.53466782 27.80087967 26.79199188 28.55097809 27.05711365 29.32380676 C28.04763859 32.2128119 29.03420523 35.10261569 30 38 C33.34827882 29.88504136 36.31934916 21.64815955 39.25 13.375 C39.7133621 12.07155073 40.17690262 10.76816488 40.640625 9.46484375 C41.76216361 6.31051642 42.88132583 3.15534433 44 0 C49.28 0 54.56 0 60 0 C59.44127314 6.78282388 57.6215901 12.67909514 55.359375 19.078125 C54.99531555 20.12595154 54.6312561 21.17377808 54.25616455 22.25335693 C53.4865382 24.46334568 52.71308523 26.67200509 51.93603516 28.87939453 C50.7596586 32.22255113 49.59562471 35.56980238 48.43359375 38.91796875 C47.6804157 41.07577515 46.92653181 43.23333533 46.171875 45.390625 C45.82896423 46.37540833 45.48605347 47.36019165 45.13275146 48.37481689 C37.51389864 69.96544002 37.51389864 69.96544002 32 74 C27.84414178 75.65081747 24.40332236 76.24127136 19.9453125 76.1953125 C18.28242188 76.18564453 18.28242188 76.18564453 16.5859375 76.17578125 C14.87277344 76.15064453 14.87277344 76.15064453 13.125 76.125 C11.9596875 76.11597656 10.794375 76.10695313 9.59375 76.09765625 C6.72907795 76.07417533 3.86451215 76.038307 1 76 C1 71.38 1 66.76 1 62 C7.27 62 13.54 62 20 62 C17.6351717 55.16768017 15.26900136 48.33582715 12.90161133 41.50439453 C12.09720981 39.18258087 11.29316876 36.86064229 10.48950195 34.53857422 C9.33119997 31.19204972 8.17158266 27.84598343 7.01171875 24.5 C6.65534836 23.4694751 6.29897797 22.4389502 5.93180847 21.37719727 C5.42161919 19.90657837 5.42161919 19.90657837 4.90112305 18.40625 C4.58001556 17.47941406 4.25890808 16.55257812 3.92807007 15.59765625 C3.08548599 13.23927421 2.17796017 10.91913188 1.24926758 8.59375 C0 5 0 5 0 0 Z " fill="#FDFDFD" transform="translate(365,101)"/>
<path d="M0 0 C5.61 0 11.22 0 17 0 C17.59167969 1.65386719 18.18335938 3.30773437 18.79296875 5.01171875 C24.71765463 21.57258204 24.71765463 21.57258204 31 38 C31.38929688 36.8140625 31.77859375 35.628125 32.1796875 34.40625 C34.18898406 28.38072142 36.31111307 22.39586203 38.44384766 16.41308594 C39.13323869 14.4768608 39.81856443 12.53922401 40.50390625 10.6015625 C40.93832031 9.38210937 41.37273437 8.16265625 41.8203125 6.90625 C42.21492676 5.79572266 42.60954102 4.68519531 43.01611328 3.54101562 C44 1 44 1 45 0 C47.69654854 -0.07319621 50.36691458 -0.09242537 53.0625 -0.0625 C53.82111328 -0.05798828 54.57972656 -0.05347656 55.36132812 -0.04882812 C57.24091871 -0.0370068 59.12046899 -0.01907078 61 0 C59.57913034 7.10113366 57.49223547 13.77299731 55.0859375 20.59765625 C54.71143463 21.67252792 54.33693176 22.7473996 53.95108032 23.85484314 C52.76378194 27.25906885 51.56950896 30.66079858 50.375 34.0625 C49.56464072 36.3819996 48.75474015 38.70165951 47.9453125 41.02148438 C45.96969192 46.68317574 43.98464209 52.34143266 42 58 C34.41 58 26.82 58 19 58 C17.2570288 53.0607196 15.5150625 48.12110477 13.77539062 43.18066406 C13.18641644 41.50892281 12.59691941 39.83736565 12.00683594 38.16601562 C8.81163403 29.11476107 5.64581518 20.05365282 2.5703125 10.9609375 C2.31071747 10.2035025 2.05112244 9.4460675 1.78366089 8.66567993 C0.77477135 5.65801518 0 3.19512161 0 0 Z " fill="#FDFDFD" transform="translate(302,101)"/>
<path d="M0 0 C7.92 0 15.84 0 24 0 C24.33 1.98 24.66 3.96 25 6 C25.928125 5.195625 26.85625 4.39125 27.8125 3.5625 C31.1388939 0.67962529 33.85507211 -0.12868743 38.23046875 -0.09765625 C39.43413086 -0.09282227 39.43413086 -0.09282227 40.66210938 -0.08789062 C41.91217773 -0.07532227 41.91217773 -0.07532227 43.1875 -0.0625 C44.03248047 -0.05798828 44.87746094 -0.05347656 45.74804688 -0.04882812 C47.83206155 -0.03705403 49.91603977 -0.0191189 52 0 C52 4.95 52 9.9 52 15 C50.53046875 15.03738281 49.0609375 15.07476562 47.546875 15.11328125 C45.61455787 15.17894251 43.68226735 15.2453898 41.75 15.3125 C40.78191406 15.33505859 39.81382812 15.35761719 38.81640625 15.38085938 C37.88183594 15.41630859 36.94726562 15.45175781 35.984375 15.48828125 C35.12553711 15.51446533 34.26669922 15.54064941 33.38183594 15.56762695 C30.50730439 16.0894387 29.11198755 17.00315288 27 19 C25.75526468 22.73420597 25.76790215 26.27365238 25.68359375 30.16796875 C25.66281265 30.96278152 25.64203156 31.7575943 25.62062073 32.57649231 C25.55527913 35.11340763 25.49631192 37.65042573 25.4375 40.1875 C25.39430014 41.90821372 25.35068537 43.62891708 25.30664062 45.34960938 C25.19883323 49.56630247 25.0996458 53.78307451 25 58 C19.39 58 13.78 58 8 58 C7.67 43.81 7.34 29.62 7 15 C4.69 14.67 2.38 14.34 0 14 C0 9.38 0 4.76 0 0 Z " fill="#FCFCFD" transform="translate(226,101)"/>
<path d="M0 0 C5.61 0 11.22 0 17 0 C17 19.14 17 38.28 17 58 C11.39 58 5.78 58 0 58 C0 38.86 0 19.72 0 0 Z " fill="#FCFCFD" transform="translate(282,101)"/>
<path d="M0 0 C1.06903564 0.05172363 1.06903564 0.05172363 2.15966797 0.10449219 C6.80381284 0.40007771 10.88056922 1.26440296 15.3125 2.6875 C15.3125 4.0075 15.3125 5.3275 15.3125 6.6875 C4.27252492 11.70567049 -9.90842435 10.43091415 -21.6484375 8.515625 C-23.6875 7.6875 -23.6875 7.6875 -24.9765625 5.609375 C-25.21117188 4.97515625 -25.44578125 4.3409375 -25.6875 3.6875 C-17.26960018 -0.52144991 -9.23210501 -0.47446361 0 0 Z " fill="#FCFDFD" transform="translate(114.6875,168.3125)"/>
</svg>
