<?xml version="1.0" encoding="UTF-8"?>
<svg version="1.1" xmlns="http://www.w3.org/2000/svg" width="225" height="225">
<path d="M0 0 C3.45628453 2.69610464 4.34824957 6.38112209 5.6875 10.375 C13.15792446 31.21590682 27.99671074 47.50769097 47.81494141 57.2668457 C70.2863455 67.80346094 97.74323436 68.04778479 121.10620117 60.05053711 C135.70873759 54.71210833 148.25448643 47.15078162 160 37 C160.75925781 36.34386719 161.51851562 35.68773437 162.30078125 35.01171875 C169.5006731 28.27354342 175.26710382 19.73064473 180.23828125 11.2421875 C180.58955078 10.64494873 180.94082031 10.04770996 181.30273438 9.43237305 C182.25792703 7.78180199 183.18646106 6.11588673 184.11328125 4.44921875 C186 2 186 2 188.66796875 1.08203125 C189.43753906 1.05496094 190.20710937 1.02789062 191 1 C192 2 192 2 192.4375 5.8125 C192.26003472 17.02830593 183.72004632 26.69808711 177 35 C176.37351563 35.79277344 175.74703125 36.58554688 175.1015625 37.40234375 C157.36709348 58.69118948 128.47332403 70.56079803 101.6171875 73.6875 C75.30744823 75.96047963 48.20012384 69.41632513 27.7265625 52.359375 C26.82679687 51.58078125 25.92703125 50.8021875 25 50 C23.99066406 49.14148438 23.99066406 49.14148438 22.9609375 48.265625 C11.42133982 37.62179518 -0.73110174 17.94398249 -2 2 C-1.34 1.34 -0.68 0.68 0 0 Z " fill="#9DFB9D" transform="translate(14,82)"/>
<path d="M0 0 C3.45628453 2.69610464 4.34824957 6.38112209 5.6875 10.375 C13.15792446 31.21590682 27.99671074 47.50769097 47.81494141 57.2668457 C60.07983274 63.01772982 72.45457329 65.19641654 85.9375 65.1875 C87.44872437 65.1884668 87.44872437 65.1884668 88.99047852 65.18945312 C97.45769226 65.13023713 105.64438105 64.35824285 114 63 C114 63.66 114 64.32 114 65 C108.11693667 66.67667305 102.78941197 67.32723622 96.6875 67.4140625 C95.83317383 67.43342865 94.97884766 67.4527948 94.09863281 67.4727478 C91.39918662 67.5320053 88.69969651 67.57871122 86 67.625 C84.15753461 67.66322946 82.31508614 67.70228399 80.47265625 67.7421875 C75.98191007 67.83766176 71.49108038 67.92188873 67 68 C68.98 68.99 68.98 68.99 71 70 C59.67056273 72.74182729 46.30005859 64.83771527 36.71191406 59.08691406 C17.99538368 47.20357218 3.86782836 27.10419688 -1.5625 5.625 C-1.706875 4.42875 -1.85125 3.2325 -2 2 C-1.34 1.34 -0.68 0.68 0 0 Z " fill="#B1F9B2" transform="translate(14,82)"/>
<path d="M0 0 C0.99 0.33 1.98 0.66 3 1 C-3.97836351 10.16307914 -10.62600973 18.19801159 -20 25 C-20.66 24.01 -21.32 23.02 -22 22 C-21.195625 21.731875 -20.39125 21.46375 -19.5625 21.1875 C-18.2940625 20.5996875 -18.2940625 20.5996875 -17 20 C-16.67 19.01 -16.34 18.02 -16 17 C-14.68 17 -13.36 17 -12 17 C-12 16.01 -12 15.02 -12 14 C-13.32 14 -14.64 14 -16 14 C-16.66 13.34 -17.32 12.68 -18 12 C-18.30292969 12.49371094 -18.60585937 12.98742187 -18.91796875 13.49609375 C-22.38250429 18.7941681 -22.38250429 18.7941681 -25.8125 19.9375 C-26.534375 19.958125 -27.25625 19.97875 -28 20 C-28 20.66 -28 21.32 -28 22 C-31.47307692 24.10865385 -31.47307692 24.10865385 -34.140625 23.55859375 C-34.75421875 23.37425781 -35.3678125 23.18992188 -36 23 C-35.32195312 22.52691406 -34.64390625 22.05382812 -33.9453125 21.56640625 C-28.01871084 17.35539981 -22.51343583 12.93425246 -17.19140625 7.98046875 C-15.20268082 6.18317144 -13.17161036 4.56811044 -11 3 C-11 3.99 -11 4.98 -11 6 C-10.45730469 5.69964844 -9.91460937 5.39929688 -9.35546875 5.08984375 C-8.64003906 4.70957031 -7.92460937 4.32929687 -7.1875 3.9375 C-6.47980469 3.55464844 -5.77210938 3.17179687 -5.04296875 2.77734375 C-3 2 -3 2 0 3 C0 2.01 0 1.02 0 0 Z " fill="#A4FBA4" transform="translate(194,108)"/>
<path d="M0 0 C-7.83429566 7.83429566 -28.25126438 8.04953573 -38.5 8.25 C-45.7495435 8.14166311 -52.84490645 7.10839623 -60 6 C-60 5.67 -60 5.34 -60 5 C-58.95545654 4.98018066 -57.91091309 4.96036133 -56.8347168 4.93994141 C-52.9599595 4.86387886 -49.08557743 4.77516272 -45.21118164 4.68261719 C-43.53417366 4.64433007 -41.85708362 4.60947669 -40.17993164 4.578125 C-37.76939568 4.53246821 -35.35942443 4.4744759 -32.94921875 4.4140625 C-31.82407112 4.39673569 -31.82407112 4.39673569 -30.67619324 4.37905884 C-26.93872287 4.27304541 -25.18571377 4.12380918 -22 2 C-18.95128971 1.8627866 -15.9586784 2.00411684 -12.91015625 2.125 C-8.18213511 1.92191721 -4.99702502 -0.2271375 0 0 Z " fill="#C1F9C2" transform="translate(144,148)"/>
<path d="M0 0 C6.96714089 -0.42655965 12.15699609 0.05369701 17.875 4.4375 C19.2559165 6.35543959 19.85182761 7.62924173 20 10 C18.5625 11.75 18.5625 11.75 17 13 C12.29553265 10.32989691 12.29553265 10.32989691 10.65625 8.5 C8.51637803 6.56200275 6.58387079 6.0683284 3.8125 5.3125 C2.91144531 5.06113281 2.01039063 4.80976562 1.08203125 4.55078125 C0.39496094 4.36902344 -0.29210937 4.18726562 -1 4 C-0.67 2.68 -0.34 1.36 0 0 Z " fill="#ACF9AA" transform="translate(198,72)"/>
<path d="M0 0 C0.66 0.33 1.32 0.66 2 1 C2 1.66 2 2.32 2 3 C3.32 3 4.64 3 6 3 C6 3.99 6 4.98 6 6 C4.68 6 3.36 6 2 6 C1.9175 6.61875 1.835 7.2375 1.75 7.875 C1 10 1 10 -1.0625 11.25 C-1.701875 11.4975 -2.34125 11.745 -3 12 C-3 12.66 -3 13.32 -3 14 C-5.97 14 -8.94 14 -12 14 C-11.3125 11.5625 -11.3125 11.5625 -10 9 C-8.34178227 8.62690101 -6.67422986 8.29299023 -5 8 C-3.79996657 6.18398635 -3.79996657 6.18398635 -3 4 C-2.02418241 2.64886795 -1.02970259 1.31053056 0 0 Z " fill="#99FC98" transform="translate(176,119)"/>
<path d="M0 0 C0.12375 0.969375 0.2475 1.93875 0.375 2.9375 C0.58125 3.948125 0.7875 4.95875 1 6 C1.66 6.33 2.32 6.66 3 7 C3 7.66 3 8.32 3 9 C-3.625 12 -3.625 12 -7 12 C-5.125 7.125 -5.125 7.125 -4 6 C-4.556875 6.14179688 -5.11375 6.28359375 -5.6875 6.4296875 C-8.1189809 7.02934326 -10.55229764 7.59516199 -13 8.125 C-13.845625 8.31320313 -14.69125 8.50140625 -15.5625 8.6953125 C-18.07300475 9.00912559 -19.59765309 8.67486648 -22 8 C-20.33710938 7.38511719 -20.33710938 7.38511719 -18.640625 6.7578125 C-17.17703971 6.21365899 -15.71350045 5.66938165 -14.25 5.125 C-13.52039063 4.85558594 -12.79078125 4.58617187 -12.0390625 4.30859375 C-9.16136557 3.23599762 -6.35831928 2.17915964 -3.609375 0.8046875 C-2 0 -2 0 0 0 Z " fill="#A8FAA8" transform="translate(151,136)"/>
<path d="M0 0 C1.62521995 0.29043855 3.25016079 0.58243892 4.875 0.875 C5.77992187 1.03742188 6.68484375 1.19984375 7.6171875 1.3671875 C9.49161259 1.71783053 11.3640871 2.08316508 13.22314453 2.5078125 C19.58712215 3.92006828 25.61615767 4.31185747 32.125 4.25 C33.11894775 4.24613281 34.11289551 4.24226562 35.13696289 4.23828125 C43.54140751 4.14079917 51.70590067 3.34824256 60 2 C60 2.66 60 3.32 60 4 C54.12128295 5.68813519 48.89295399 6.29640304 42.79296875 6.265625 C41.52215202 6.26849518 41.52215202 6.26849518 40.22566223 6.27142334 C38.44999898 6.2727752 36.67432551 6.26914913 34.89868164 6.26074219 C32.17767397 6.24996107 29.45731645 6.26070544 26.73632812 6.2734375 C25.00520688 6.27211703 23.27408603 6.26955698 21.54296875 6.265625 C20.73047165 6.26967346 19.91797455 6.27372192 19.08085632 6.27789307 C15.20265019 6.24549943 13.3008779 6.20058527 10 4 C8.845 3.855625 7.69 3.71125 6.5 3.5625 C2.84176102 2.97456874 2.29385302 2.62254538 0 0 Z " fill="#C9FACA" transform="translate(68,143)"/>
<path d="M0 0 C-0.26171875 1.88671875 -0.26171875 1.88671875 -1 4 C-2.70703125 5.08203125 -2.70703125 5.08203125 -4.8125 5.8125 C-5.84310547 6.19341797 -5.84310547 6.19341797 -6.89453125 6.58203125 C-9.26868457 7.05333812 -10.72314894 6.75212833 -13 6 C-11.93363297 2.90753562 -10.99355341 1.99584553 -8.1875 0.1875 C-4.81023996 -1.07069492 -3.36888105 -1.0899321 0 0 Z " fill="#C6F8C5" transform="translate(20,70)"/>
<path d="M0 0 C0 3.70570857 -0.96766737 4.71886517 -3.1875 7.625 C-3.77917969 8.42164062 -4.37085938 9.21828125 -4.98046875 10.0390625 C-7.32266215 12.31330058 -8.79920539 12.67936772 -12 13 C-12 13.66 -12 14.32 -12 15 C-15.47307692 17.10865385 -15.47307692 17.10865385 -18.140625 16.55859375 C-18.75421875 16.37425781 -19.3678125 16.18992188 -20 16 C-19.31035156 15.5153125 -18.62070313 15.030625 -17.91015625 14.53125 C-11.59099824 10.02375731 -5.68811258 5.28081563 0 0 Z " fill="#B7F9B9" transform="translate(178,115)"/>
<path d="M0 0 C0.99 0 1.98 0 3 0 C1.66659064 3.58994826 0.34884529 6.95520055 -2 10 C-4.6875 10.3125 -4.6875 10.3125 -7 10 C-6.67 9.34 -6.34 8.68 -6 8 C-6.66 7.34 -7.32 6.68 -8 6 C-7.34 6 -6.68 6 -6 6 C-6 5.01 -6 4.02 -6 3 C-4.02 2.67 -2.04 2.34 0 2 C0 1.34 0 0.68 0 0 Z " fill="#97FC97" transform="translate(157,133)"/>
<path d="M0 0 C3.80984844 2.77079887 4.06840752 6.62868145 5 11 C4.01 10.67 3.02 10.34 2 10 C1.67 11.32 1.34 12.64 1 14 C0.44417248 12.04563873 -0.09428713 10.08633018 -0.625 8.125 C-0.92664063 7.03445312 -1.22828125 5.94390625 -1.5390625 4.8203125 C-1.69117188 3.88960938 -1.84328125 2.95890625 -2 2 C-1.34 1.34 -0.68 0.68 0 0 Z " fill="#C2F7C2" transform="translate(14,82)"/>
<path d="M0 0 C0 0.66 0 1.32 0 2 C-0.99 2 -1.98 2 -3 2 C-3 2.66 -3 3.32 -3 4 C-4.32 4 -5.64 4 -7 4 C-7.33 4.99 -7.66 5.98 -8 7 C-9.58086048 7.36504603 -11.16483907 7.71660506 -12.75 8.0625 C-13.63171875 8.25972656 -14.5134375 8.45695313 -15.421875 8.66015625 C-18.02266321 9.00298742 -19.51848845 8.70340244 -22 8 C-20.33710938 7.38511719 -20.33710938 7.38511719 -18.640625 6.7578125 C-17.17703971 6.21365899 -15.71350045 5.66938165 -14.25 5.125 C-13.52039063 4.85558594 -12.79078125 4.58617187 -12.0390625 4.30859375 C-9.16136557 3.23599762 -6.35831928 2.17915964 -3.609375 0.8046875 C-2 0 -2 0 0 0 Z " fill="#C2F8C3" transform="translate(151,136)"/>
<path d="M0 0 C8 -0.30769231 8 -0.30769231 11 2 C11.75 4.125 11.75 4.125 12 6 C5.84765625 5.4140625 5.84765625 5.4140625 4 5 C3.67 4.34 3.34 3.68 3 3 C2.01 2.67 1.02 2.34 0 2 C0 1.34 0 0.68 0 0 Z " fill="#A5F9A8" transform="translate(52,138)"/>
<path d="M0 0 C0.99 0.33 1.98 0.66 3 1 C1.87970983 2.48273699 0.75361382 3.96108886 -0.375 5.4375 C-1.00148437 6.26121094 -1.62796875 7.08492188 -2.2734375 7.93359375 C-4 10 -4 10 -6 11 C-6.33 8.69 -6.66 6.38 -7 4 C-4.625 2.9375 -4.625 2.9375 -2 2 C-1.34 2.33 -0.68 2.66 0 3 C0 2.01 0 1.02 0 0 Z " fill="#B1F9B1" transform="translate(194,108)"/>
<path d="M0 0 C2.375 0.625 2.375 0.625 5 2 C6.3125 5.125 6.3125 5.125 7 8 C6.01 8.99 5.02 9.98 4 11 C-0.875 8.375 -0.875 8.375 -2 5 C-0.02 5.66 1.96 6.32 4 7 C2.99257646 3.97772938 2.20999438 3.11390767 0 1 C0 0.67 0 0.34 0 0 Z " fill="#C1F8C0" transform="translate(211,74)"/>
<path d="M0 0 C2.5 2.3125 2.5 2.3125 5 5 C5 5.99 5 6.98 5 8 C4.01 7.34 3.02 6.68 2 6 C2.515625 6.78375 3.03125 7.5675 3.5625 8.375 C4.036875 9.24125 4.51125 10.1075 5 11 C4.67 11.66 4.34 12.32 4 13 C1.69 10.03 -0.62 7.06 -3 4 C-2.67 3.34 -2.34 2.68 -2 2 C-0.515 2.99 -0.515 2.99 1 4 C0.67 2.68 0.34 1.36 0 0 Z " fill="#C4F9C4" transform="translate(27,110)"/>
<path d="M0 0 C1.32 0.33 2.64 0.66 4 1 C4 3.97 4 6.94 4 10 C3.67 10 3.34 10 3 10 C2.67 8.02 2.34 6.04 2 4 C1.401875 4.309375 0.80375 4.61875 0.1875 4.9375 C-2 6 -2 6 -5 7 C-3.75023244 3.34683329 -3.32901247 2.21934164 0 0 Z " fill="#C4F8C4" transform="translate(202,83)"/>
<path d="M0 0 C2.64 1.98 5.28 3.96 8 6 C5 7 5 7 3 7 C2.67 7.99 2.34 8.98 2 10 C0.5 8.6875 0.5 8.6875 -1 7 C-1 6.01 -1 5.02 -1 4 C-0.34 4 0.32 4 1 4 C0.67 2.68 0.34 1.36 0 0 Z " fill="#C3F9C2" transform="translate(39,124)"/>
<path d="M0 0 C0.33 0.66 0.66 1.32 1 2 C0.109375 4.27734375 0.109375 4.27734375 -1.25 6.9375 C-1.90742188 8.25041016 -1.90742188 8.25041016 -2.578125 9.58984375 C-3.87297665 11.78468845 -5.10963121 13.31534782 -7 15 C-7 13.68 -7 12.36 -7 11 C-6.34 11 -5.68 11 -5 11 C-4.67 8.69 -4.34 6.38 -4 4 C-3.01 3.67 -2.02 3.34 -1 3 C-0.67 2.01 -0.34 1.02 0 0 Z " fill="#BDF8BD" transform="translate(204,93)"/>
<path d="M0 0 C3.91402949 1.26941497 5.79072873 2.51167694 8 6 C7.67 6.66 7.34 7.32 7 8 C5.68 8 4.36 8 3 8 C0 2.25 0 2.25 0 0 Z " fill="#A7F9AA" transform="translate(29,116)"/>
<path d="M0 0 C1.41623216 -0.05447047 2.83308191 -0.09300508 4.25 -0.125 C5.03890625 -0.14820312 5.8278125 -0.17140625 6.640625 -0.1953125 C9.20731941 0.0171622 10.7916067 0.71345895 13 2 C12.24074219 2.06058594 11.48148438 2.12117188 10.69921875 2.18359375 C9.70535156 2.26738281 8.71148437 2.35117188 7.6875 2.4375 C6.20830078 2.55931641 6.20830078 2.55931641 4.69921875 2.68359375 C1.90624401 2.91812559 1.90624401 2.91812559 -1 4 C-0.67 2.68 -0.34 1.36 0 0 Z " fill="#C2F8C1" transform="translate(198,72)"/>
<path d="M0 0 C0.66 0.33 1.32 0.66 2 1 C2 1.66 2 2.32 2 3 C2.99 3.33 3.98 3.66 5 4 C5 4.99 5 5.98 5 7 C2.83125748 6.49396008 1.00032373 6.00016187 -1 5 C-1.625 2.9375 -1.625 2.9375 -2 1 C-1.34 0.67 -0.68 0.34 0 0 Z " fill="#9AFA98" transform="translate(210,74)"/>
<path d="M0 0 C0.99 0.33 1.98 0.66 3 1 C3 1.99 3 2.98 3 4 C-1.455 4.495 -1.455 4.495 -6 5 C-2.25 1.125 -2.25 1.125 0 0 Z " fill="#A0F99F" transform="translate(16,70)"/>
<path d="M0 0 C1.65 0 3.3 0 5 0 C5 0.99 5 1.98 5 3 C6.32 3.33 7.64 3.66 9 4 C9 4.66 9 5.32 9 6 C5.06326356 4.68775452 2.77280706 3.08089673 0 0 Z " fill="#BBF8BA" transform="translate(47,137)"/>
<path d="M0 0 C1.65 0 3.3 0 5 0 C1.88983545 3.28788824 -1.01618925 5.83735988 -5 8 C-5.33 7.01 -5.66 6.02 -6 5 C-5.195625 4.731875 -4.39125 4.46375 -3.5625 4.1875 C-2.716875 3.795625 -1.87125 3.40375 -1 3 C-0.67 2.01 -0.34 1.02 0 0 Z " fill="#BFF9C2" transform="translate(178,125)"/>
<path d="M0 0 C1 2 1 2 1 6 C-0.32 6.33 -1.64 6.66 -3 7 C-3 7.99 -3 8.98 -3 10 C-3.99 10.33 -4.98 10.66 -6 11 C-4.54955729 6.89041233 -2.48889248 3.56741255 0 0 Z " fill="#C1F9C1" transform="translate(195,92)"/>
<path d="M0 0 C1.98 0.99 1.98 0.99 4 2 C4 3.65 4 5.3 4 7 C2.68 6.34 1.36 5.68 0 5 C0 3.35 0 1.7 0 0 Z " fill="#A8F7AA" transform="translate(18,97)"/>
<path d="M0 0 C0.66 0.33 1.32 0.66 2 1 C1 4 1 4 -0.8125 5.25 C-3 6 -3 6 -7 5 C-4.69 3.35 -2.38 1.7 0 0 Z " fill="#C2F8C0" transform="translate(165,126)"/>
<path d="M0 0 C-2.62198774 2.15377564 -4.64404172 3.40072174 -8 4 C-8 3.01 -8 2.02 -8 1 C-5.29120665 -0.35439668 -2.99066732 -0.06501451 0 0 Z " fill="#BBF9BC" transform="translate(162,140)"/>
</svg>
