<?xml version="1.0" standalone="no"?>
<!DOCTYPE svg PUBLIC "-//W3C//DTD SVG 20010904//EN"
 "http://www.w3.org/TR/2001/REC-SVG-20010904/DTD/svg10.dtd">
<svg version="1.0" xmlns="http://www.w3.org/2000/svg"
 width="626.000000pt" height="626.000000pt" viewBox="0 0 626.000000 626.000000"
 preserveAspectRatio="xMidYMid meet">

<g transform="translate(0.000000,626.000000) scale(0.100000,-0.100000)"
fill="#000000" stroke="none">
<path d="M2991 4739 c-668 -51 -1252 -534 -1435 -1185 -43 -153 -59 -275 -60
-449 0 -178 11 -266 55 -435 92 -352 301 -661 600 -887 185 -140 387 -234 624
-289 113 -27 134 -28 350 -29 251 0 306 7 495 67 115 36 309 129 405 193 252
170 452 399 579 665 106 222 157 451 158 705 1 274 -51 494 -173 735 -234 461
-653 785 -1144 884 -68 14 -309 38 -340 34 -5 0 -57 -4 -114 -9z m-176 -784
c84 -21 173 -68 249 -131 36 -30 68 -54 72 -54 3 0 30 22 60 49 174 159 415
197 613 96 66 -33 154 -114 188 -173 110 -187 76 -435 -84 -612 l-55 -60 55
-60 c254 -281 167 -696 -169 -808 -195 -66 -395 -15 -577 145 l-37 33 -64 -54
c-111 -94 -208 -138 -336 -151 -239 -25 -473 142 -521 373 -15 74 -6 190 21
269 24 69 79 158 134 216 l37 39 -41 44 c-204 221 -213 525 -20 714 97 95 202
138 340 139 42 1 103 -6 135 -14z"/>
<path d="M2590 3949 c-126 -21 -261 -121 -323 -236 -61 -115 -70 -263 -22
-389 50 -133 134 -227 335 -377 155 -115 246 -200 368 -342 121 -141 214 -235
225 -228 6 3 7 1 3 -5 -7 -11 91 -92 111 -92 6 0 16 -7 23 -15 7 -8 17 -15 22
-15 14 0 -11 22 -54 49 -21 12 -38 26 -38 30 0 4 -11 13 -25 19 -16 8 -23 17
-20 31 2 11 0 23 -6 26 -5 4 -9 1 -9 -4 0 -6 -5 -11 -11 -11 -5 0 -7 5 -4 10
4 6 1 9 -6 8 -7 -2 -13 6 -14 17 -4 59 -4 58 -21 41 -8 -9 -20 -14 -25 -11
-13 8 -11 16 2 12 6 -1 13 6 14 16 3 14 1 16 -10 7 -11 -9 -13 -8 -10 8 2 10
-8 32 -21 47 -21 24 -22 30 -10 37 8 5 13 15 10 23 -4 8 -1 15 7 15 7 0 10 3
6 6 -3 4 0 19 9 35 8 16 15 32 16 36 1 5 7 13 12 20 8 9 14 8 25 -5 12 -15 12
-14 6 7 -6 18 -4 22 6 16 17 -10 6 4 -84 107 -75 85 -198 193 -351 308 -180
136 -252 225 -263 324 -14 125 85 237 212 238 112 1 186 -55 414 -315 98 -111
193 -202 289 -276 l42 -33 97 72 96 73 -54 46 c-85 72 -193 185 -304 321 -161
198 -266 283 -404 330 -70 23 -187 32 -261 19z m443 -1372 c4 3 7 2 7 -4 0 -6
-8 -17 -17 -24 -12 -10 -15 -11 -9 -1 4 7 2 20 -6 30 -11 15 -11 15 3 5 9 -7
19 -10 22 -6z"/>
<path d="M2595 3682 c-111 -54 -148 -174 -90 -295 19 -41 106 -137 124 -137
27 0 311 262 311 286 0 19 -106 110 -157 135 -64 31 -137 35 -188 11z"/>
<path d="M3508 3685 c-47 -17 -113 -63 -156 -107 l-32 -34 70 -78 c94 -102
221 -216 242 -216 22 0 94 83 124 142 26 52 32 135 13 185 -36 95 -158 146
-261 108z"/>
<path d="M4032 3420 c0 -14 2 -19 5 -12 2 6 2 18 0 25 -3 6 -5 1 -5 -13z"/>
<path d="M2749 3318 c-31 -24 -67 -52 -81 -63 l-25 -20 61 -47 c33 -27 77 -60
98 -74 l36 -25 41 26 c22 15 38 32 34 38 -3 6 -1 7 5 3 13 -8 84 52 76 65 -3
5 0 8 6 7 7 -2 14 8 16 21 4 20 2 22 -11 11 -9 -7 -15 -8 -15 -2 0 12 21 21
38 15 10 -4 10 -8 0 -21 -12 -14 -11 -14 10 -1 12 8 17 16 11 18 -8 2 -8 6 1
11 8 5 7 9 -5 13 -9 4 -13 3 -10 -3 8 -13 -1 -13 -27 1 -14 8 -23 8 -31 0 -14
-14 -50 -14 -63 -1 -6 6 -24 12 -41 13 -17 1 -29 5 -26 10 2 4 -8 12 -22 17
-14 5 -23 14 -20 20 10 17 2 12 -56 -32z m51 18 c0 -2 -7 -7 -16 -10 -8 -3
-12 -2 -9 4 6 10 25 14 25 6z"/>
<path d="M3992 3332 c-23 -23 -30 -48 -10 -36 7 4 8 3 4 -5 -6 -9 -11 -9 -22
0 -12 10 -17 8 -28 -7 -8 -10 -12 -23 -9 -29 4 -5 3 -7 -1 -3 -4 3 -23 0 -42
-8 -19 -8 -39 -12 -44 -9 -5 3 -11 1 -15 -5 -9 -14 -58 -13 -74 3 -8 6 -11 7
-8 2 3 -6 -3 -11 -13 -11 -17 0 -18 2 -4 17 14 15 12 16 -18 13 -31 -3 -32 -2
-14 11 10 8 23 12 27 9 5 -3 6 2 3 10 -4 10 -1 16 7 16 7 0 9 3 6 7 -4 3 -30
-16 -59 -43 -29 -28 -97 -83 -150 -123 -106 -78 -114 -86 -98 -96 6 -4 9 -1 8
6 -2 8 7 14 22 14 14 0 31 4 38 8 20 13 100 -4 126 -27 13 -11 37 -31 51 -44
27 -22 27 -23 9 -44 -24 -28 99 64 148 110 20 19 34 40 31 45 -3 6 -1 7 5 3
15 -9 86 78 122 152 35 71 35 97 2 64z m-292 -96 c-7 -7 -13 -7 -20 0 -6 6 -3
10 10 10 13 0 16 -4 10 -10z m-205 -143 c-2 -10 -4 -19 -4 -21 -1 -2 -6 0 -11
3 -8 5 -7 11 1 21 15 18 18 18 14 -3z"/>
<path d="M3050 3243 c-41 -41 -104 -96 -139 -121 l-63 -46 53 -44 c30 -25 93
-84 140 -132 l86 -87 99 96 c55 53 119 112 143 132 l44 35 -74 59 c-40 32
-102 87 -137 122 -36 35 -67 63 -71 63 -3 -1 -40 -35 -81 -77z"/>
<path d="M2571 2835 c-70 -74 -94 -131 -89 -206 11 -150 162 -228 304 -156 55
28 144 102 144 121 0 27 -274 296 -302 296 -3 0 -29 -25 -57 -55z"/>
<path d="M3550 2826 c-41 -35 -111 -100 -155 -145 l-79 -81 44 -45 c126 -129
296 -143 384 -32 29 36 31 44 31 120 0 59 -5 91 -18 115 -21 38 -108 132 -123
132 -5 -1 -43 -29 -84 -64z"/>
<path d="M3135 2691 c5 -18 4 -22 -5 -16 -8 5 -11 4 -6 -3 4 -6 13 -9 22 -5
14 5 13 9 -14 43 -3 3 -1 -6 3 -19z"/>
<path d="M3196 2668 c3 -5 9 -7 12 -4 3 3 12 0 21 -6 13 -10 14 -10 4 2 -15
16 -46 23 -37 8z"/>
</g>
</svg>
