<?xml version="1.0" standalone="no"?>
<!DOCTYPE svg PUBLIC "-//W3C//DTD SVG 20010904//EN"
 "http://www.w3.org/TR/2001/REC-SVG-20010904/DTD/svg10.dtd">
<svg version="1.0" xmlns="http://www.w3.org/2000/svg"
 width="2264.000000pt" height="1697.000000pt" viewBox="0 0 2264.000000 1697.000000"
 preserveAspectRatio="xMidYMid meet">

<g transform="translate(0.000000,1697.000000) scale(0.100000,-0.100000)"
fill="#000000" stroke="none">
<path d="M0 8485 l0 -8485 11320 0 11320 0 0 8485 0 8485 -11320 0 -11320 0 0
-8485z m7199 969 c-6 -8 -15 -14 -19 -14 -4 0 -81 -43 -170 -95 -89 -52 -166
-95 -172 -95 -5 0 -6 -6 -2 -12 4 -7 4 -10 -1 -6 -7 7 -63 -18 -75 -33 -3 -4
-23 -16 -45 -28 -52 -28 -107 -60 -237 -137 -59 -35 -112 -64 -118 -64 -5 0
-10 -4 -10 -10 0 -5 -6 -10 -13 -10 -7 0 -20 -9 -30 -20 -9 -11 -23 -20 -31
-20 -8 0 -33 -16 -57 -35 -23 -20 -47 -34 -53 -32 -14 6 -37 -18 -28 -28 4 -4
0 -6 -8 -4 -25 4 -50 -12 -50 -31 0 -10 -7 -21 -16 -24 -10 -4 -13 -13 -9 -26
3 -11 2 -20 -4 -20 -5 0 -13 -9 -16 -20 -6 -20 -35 -28 -35 -10 0 6 5 10 10
10 6 0 10 11 10 25 0 22 -3 25 -27 19 -45 -9 -83 -26 -83 -35 0 -5 5 -9 10 -9
6 0 10 -5 10 -10 0 -6 -10 -8 -22 -5 -21 5 -23 2 -26 -40 -2 -40 0 -45 18 -45
22 0 27 -15 8 -24 -10 -5 -10 -7 0 -12 14 -7 16 -50 2 -59 -5 -3 -10 -24 -10
-46 0 -29 4 -39 16 -39 33 0 44 -26 44 -110 0 -73 2 -82 20 -87 11 -3 20 -14
20 -24 0 -12 7 -19 20 -19 19 0 20 -7 20 -96 0 -87 2 -96 20 -101 18 -5 20
-14 20 -84 l0 -79 75 0 c57 0 75 -3 75 -14 0 -8 -12 -17 -27 -21 -15 -3 -34
-14 -42 -24 -9 -10 -23 -21 -31 -24 -8 -4 -2 -4 15 -1 16 3 32 9 35 13 3 4 20
13 38 20 18 8 37 22 42 31 9 18 64 32 88 23 7 -3 12 -22 12 -44 0 -32 3 -39
20 -39 11 0 20 5 20 10 0 6 16 10 35 10 33 0 34 -1 29 -30 -5 -23 -3 -30 10
-30 18 0 22 -36 5 -42 -9 -3 -9 -9 0 -25 6 -12 11 -38 11 -57 l0 -36 75 0 75
0 0 -80 0 -80 40 0 40 0 0 -80 c0 -47 4 -80 10 -80 6 0 10 -13 10 -30 0 -27 3
-30 30 -30 29 0 30 -1 30 -49 l0 -48 53 -6 c29 -3 58 0 65 6 7 5 15 7 18 5 8
-9 -61 -48 -84 -48 -11 0 -24 5 -27 10 -3 6 -12 10 -18 10 -7 0 -4 -5 6 -11 9
-6 15 -14 12 -20 -3 -5 0 -7 7 -6 7 2 10 2 6 0 -4 -3 -9 -3 -10 -2 -2 2 -13
-6 -26 -16 -12 -11 -93 -61 -180 -110 -160 -93 -245 -142 -644 -373 -124 -73
-229 -132 -232 -132 -3 0 -6 172 -6 383 0 433 -9 757 -21 757 -12 0 -143 80
-150 92 -3 5 -10 10 -15 9 -19 0 -100 45 -439 242 l-350 203 -2 570 -3 569 48
27 c26 14 576 332 1222 706 l1175 681 3 -566 c1 -409 -1 -570 -9 -579z m5691
-736 c0 -754 1 -816 18 -848 26 -54 69 -70 184 -70 l97 0 -2 -157 -2 -158
-170 0 c-139 0 -180 4 -228 19 -114 37 -186 109 -229 226 l-23 65 -3 868 -3
867 181 0 180 0 0 -812z m-2710 757 c138 -25 219 -64 289 -140 80 -87 120
-219 121 -397 l0 -88 -185 0 -185 0 0 79 c0 117 -24 170 -95 209 -25 15 -73
18 -315 20 -311 4 -370 -2 -420 -45 -85 -71 -77 -328 12 -385 45 -29 98 -40
438 -88 190 -27 370 -57 400 -66 173 -51 275 -146 323 -299 19 -60 22 -92 22
-230 -1 -176 -14 -249 -62 -337 -53 -98 -164 -174 -303 -209 -42 -11 -146 -14
-445 -14 -342 0 -398 2 -455 18 -210 57 -312 173 -345 392 -16 105 -19 183 -9
209 5 14 31 16 185 16 l179 0 0 -60 c0 -138 40 -215 125 -239 55 -15 600 -15
646 0 47 16 97 66 109 109 15 52 12 205 -4 243 -19 46 -68 84 -129 101 -29 8
-196 35 -372 60 -356 51 -408 62 -496 107 -118 59 -196 158 -228 291 -17 72
-15 322 3 401 47 200 179 312 407 346 104 15 701 12 789 -4z m1744 -490 c165
-46 257 -134 304 -289 22 -74 28 -758 8 -862 -37 -187 -150 -298 -343 -339
-96 -21 -570 -21 -667 0 -72 15 -176 60 -212 92 -45 40 -93 115 -116 180 -23
67 -23 74 -23 473 0 402 0 406 24 479 42 127 126 211 254 252 101 33 164 37
452 34 204 -3 273 -7 319 -20z m4115 1 c136 -38 240 -124 280 -230 35 -93 39
-177 40 -718 l1 -528 -180 0 -180 0 0 523 c0 522 0 523 -22 567 -38 74 -59 80
-289 80 -187 0 -198 -1 -230 -23 -71 -47 -69 -31 -69 -619 l0 -528 -180 0
-180 0 0 735 0 736 157 -3 156 -3 4 -30 c1 -16 5 -49 8 -72 l6 -41 57 58 c62
63 128 94 232 109 84 13 326 5 389 -13z m-1659 0 c36 -8 86 -23 113 -35 64
-28 143 -104 177 -172 54 -107 59 -162 60 -741 l0 -528 -159 0 -160 0 -7 72
-7 71 -21 -29 c-37 -52 -89 -94 -145 -117 -53 -21 -70 -22 -291 -22 -225 0
-238 1 -305 25 -93 33 -172 108 -206 195 -21 54 -23 76 -23 220 0 142 2 166
22 216 28 69 90 143 146 171 92 47 124 51 470 55 l328 5 -3 118 c-4 128 -12
149 -73 194 -26 20 -41 21 -221 21 -180 0 -195 -1 -221 -21 -46 -34 -65 -67
-71 -127 l-6 -57 -179 0 -179 0 6 73 c20 237 125 366 338 412 88 19 529 20
617 1z m3282 -14 c130 -43 215 -125 260 -251 23 -66 23 -67 26 -638 l3 -573
-154 0 c-171 0 -166 -2 -168 68 0 20 -4 46 -8 57 -8 19 -8 19 -15 -2 -11 -33
-97 -105 -152 -128 -42 -17 -78 -20 -264 -22 -238 -3 -304 6 -392 54 -97 53
-149 141 -169 286 -14 98 -2 238 26 318 44 125 147 197 320 223 17 2 162 5
323 5 l292 1 0 113 c0 130 -14 169 -70 202 -32 18 -52 20 -220 20 -158 0 -190
-3 -217 -18 -41 -22 -62 -54 -69 -103 -13 -93 8 -84 -189 -84 l-175 0 0 53 c0
69 33 199 64 251 34 57 91 110 153 140 96 48 153 55 453 52 253 -2 280 -4 342
-24z m-11702 -342 c0 -13 -7 -20 -20 -20 -19 0 -27 20 -13 33 13 14 33 6 33
-13z m415 -796 c-9 -9 -18 -14 -21 -11 -9 9 6 27 22 27 13 0 13 -2 -1 -16z
m848 -598 c4 -10 1 -13 -8 -9 -8 3 -12 9 -9 14 7 12 11 11 17 -5z m-93 -70 c0
-2 -8 -10 -17 -17 -16 -13 -17 -12 -4 4 13 16 21 21 21 13z m-88 -43 c-6 -2
-10 -9 -7 -14 4 -5 -2 -6 -11 -2 -13 5 -15 3 -9 -7 5 -9 4 -11 -3 -6 -7 4 -12
2 -12 -4 0 -6 -4 -9 -9 -6 -5 3 -12 -1 -15 -10 -3 -8 -10 -12 -16 -9 -14 9
-12 25 3 25 6 0 23 9 37 20 14 11 32 19 40 19 10 0 11 -2 2 -6z"/>
<path d="M5785 8610 c3 -5 8 -10 11 -10 2 0 4 5 4 10 0 6 -5 10 -11 10 -5 0
-7 -4 -4 -10z"/>
<path d="M6095 7700 c-3 -5 1 -10 9 -10 9 0 16 5 16 10 0 6 -4 10 -9 10 -6 0
-13 -4 -16 -10z"/>
<path d="M6040 7678 c0 -13 -44 -38 -67 -38 -7 0 -13 -7 -13 -16 0 -13 5 -12
29 5 16 12 32 21 36 21 4 0 18 9 32 20 25 19 25 20 4 20 -11 0 -21 -6 -21 -12z"/>
<path d="M11311 8662 c-19 -9 -44 -30 -55 -45 -20 -27 -21 -43 -24 -358 -4
-476 -20 -454 328 -454 217 0 226 1 262 23 66 41 69 62 66 434 -3 312 -4 328
-24 355 -42 58 -67 63 -304 63 -185 0 -220 -2 -249 -18z"/>
<path d="M13837 8085 c-21 -7 -40 -15 -41 -17 -31 -41 -36 -58 -36 -130 0
-151 16 -162 251 -166 319 -7 359 20 359 235 l0 93 -247 0 c-183 -1 -258 -4
-286 -15z"/>
<path d="M17053 8085 c-52 -22 -68 -57 -68 -151 0 -68 4 -87 21 -111 35 -47
77 -55 289 -51 169 3 194 5 225 23 60 35 74 82 71 233 l-1 72 -252 0 c-193 -1
-261 -4 -285 -15z"/>
</g>
</svg>
