<?xml version="1.0" encoding="UTF-8"?>
<svg version="1.1" viewBox="300 300 1000 1000" width="32" height="32" xmlns="http://www.w3.org/2000/svg">
<path transform="translate(898,523)" d="m0 0 8 1 25 7 19 7 14 5 11 7 15 16 9 9 7 8 11 12 8 8 7 8 12 13 9 11 14 15 11 13 7 10-2 5-13 10-16 10-17 13-28 20-36 26-13 10-17 12-14 10-18 13-16 12h-2l-4 18-5 34-7 46-7 42-5 31-4 28v10l8 16 10 18 14 29 10 19 18 34 12 23 8 17v6l-8 11-31 33-9 11-10 11-7 8-5 4-11 1h-117l-5-2-9-10-10-14-10-11-7-8-9-9-7-8-8-8-6-8v-7l8-16 11-20 7-16 16-31 10-19 14-29 9-16 3-7v-14l-5-38-5-30-4-29-10-62-4-31-4-7-13-10-14-10-12-8-18-13-14-10-30-22-17-12-14-10-17-12-14-10-18-13-10-8-1-4 7-9 8-8 7-8 13-15 12-13 7-8 13-14 7-8 9-10 9-11 16-17 9-7 16-6 32-10 12-3 2-1h7l16 8 15 11 13 9 17 12 16 11 10 7 5 3 5-1 15-10 14-10 36-26 11-8 10-6z" fill="#489A72"/>
<path transform="translate(898,523)" d="m0 0 8 1 25 7 19 7 14 5 11 7 15 16 9 9 7 8 11 12 8 8 7 8 12 13 5 7-4 5-5 4h-2v2l-10 7-2 2-18 12-12 7-16 8-7 3-13 5-8 3-10 3-17 5-23 5-10 1-8 2h-23l-11-6-13-8-11-6-18-10h-6l-15 9h-3v2l-11 7-14 9-7 3-14 1-22-3-17-3-16-4-17-5-14-5-24-10-5-3-5-2v-2l-4-1-14-8-9-6-10-8-5-3-10-9-2-2 1-5 8-8 7-8 13-14 7-8 9-10 9-11 16-17 9-7 16-6 32-10 12-3 2-1h7l16 8 15 11 13 9 17 12 16 11 10 7 5 3 5-1 15-10 14-10 36-26 11-8 10-6z" fill="#5DC58F"/>
<path transform="translate(1174,353)" d="m0 0 4 2 17 17 7 8 13 13 8 7 17 16 35 35 7 8 12 13 9 11 10 13 15 20 10 18 7 16 3 13v21l-4 14-7 13-11 13-10 9-11 7-15 7-17 5-18 3-30 2h-46l-37-1-12-2-9-7-9-9-9-11-12-13-7-8-10-9-11-12-11-13-9-10-11-13-2-5h16l28 1h64l24-3 20-6 11-5 16-9 6-5 7-11 4-14v-22l-5-19-10-28-11-25-10-19-13-20z" fill="#5DC48F"/>
<path transform="translate(435,354)" d="m0 0h2l-1 5-8 13-12 20-8 15-11 27-8 25-3 19v10l3 15 5 10 7 8 10 7 16 8 18 6 21 3 17 1h26l47-2h25v3l-9 11-12 13-9 11-16 17-13 13-7 8-12 14-13 14-1 2h-2v2l-5 3-14 1h-92l-22-2-22-4-18-6-15-8-13-11-9-11-8-16-4-14-1-5v-16l3-14 5-13 8-15 12-17 14-18 12-14 12-13 7-8 28-28 8-7 6-6h2l1-3 8-7 21-21 8-7 9-10z" fill="#5CC48E"/>
<path transform="translate(880,1068)" d="m0 0h4l22 43 12 22 17 33 6 13v6l-8 11-31 33-9 11-10 11-7 8-5 4-11 1h-117l-5-2-9-10-10-14-10-11-7-8-9-9-7-8-8-8-6-8v-7l8-16 11-20 7-16 16-31 10-19 4-8 7 1 69 23 10-1 13-5 15-5 36-13z" fill="#2B5C43"/>
<path transform="translate(1047,772)" d="m0 0 3 1 9 25 10 29 10 28 9 24 3 11-1 7-7 14-11 17-13 20-10 17-10 16-10 17-16 26-14 23-8 13-18 30-13 19-5-5-10-18-14-26-16-32-4-9v-20l2-22 9-69 5-36 3-22 3-9 14-9 22-13 35-21 26-16 14-8z" fill="#489A72"/>
<path transform="translate(563,773)" d="m0 0 5 2 18 10 25 15 28 17 22 13 16 11 4 5 2 6 8 66 3 27 6 46 1 11v14l-3 10-14 29-19 37-10 16-4-2-10-15-9-15-12-19-9-15-15-24-13-22-10-16-24-38-10-17-8-13-8-16v-10l5-16 10-27 14-43 8-21z" fill="#489A72"/>
<path transform="translate(418,373)" d="m0 0v3l-14 17-11 15-14 19-16 23-11 17-12 20-13 26-8 22-3 14v14l4 10 7 8 14 8 21 7 31 6 27 3 20 1h64l23-1-2 4-11 12-9 11-15 16-1 2h-2v2l-5 3-14 1h-92l-22-2-22-4-18-6-15-8-13-11-9-11-8-16-4-14-1-5v-16l3-14 5-13 8-15 12-17 14-18 12-14 12-13 7-8 28-28 8-7 6-6h2l1-3 8-7 21-21z" fill="#2B5C43"/>
<path transform="translate(1188,367)" d="m0 0 4 2 12 13 11 11 8 7 17 16 35 35 7 8 12 13 9 11 10 13 15 20 10 18 7 16 3 13v21l-4 14-7 13-11 13-10 9-11 7-15 7-17 5-18 3-30 2h-46l-37-1-12-2-9-7-9-9-9-11-12-13-6-8h99l39-4 24-5 24-8 11-6 9-8 6-12v-15l-4-17-6-17-13-26-14-23-11-16-15-22-10-13-12-15-1-4h-2l-8-11-9-11-4-4z" fill="#2B5C43"/>
<path transform="translate(1071,840)" d="m0 0 3 1 14 38 3 11-1 7-7 14-11 17-13 20-10 17-10 16-10 17-16 26-14 23-8 13-18 30-10 14h-1l1-13 4-14 9-42 6-30 10-46 3-16 4-12 7-10h2l2-4 12-16h2l2-4 9-11 3-5h2l2-4 9-11 11-14 8-10z" fill="#2B5C43"/>
<path transform="translate(540,839)" d="m0 0 4 5 6 7 4 6 11 13 10 13 9 11 8 10 13 16 9 12 4 14 9 41 11 55 7 30 7 32-4-2-14-23-11-17-12-20-15-24-13-22-10-16-24-38-10-17-8-13-8-16v-10l5-16 10-27z" fill="#2B5C43"/>
<path transform="translate(751,1016)" d="m0 0h1v8l4 1 8 3 20 8 13 6 6 2h7l27-11 18-7 6-1 14 24 9 19-20 7-22 8-26 9-6 2-9-1-60-20-13-4 9-19 10-18 3-7z" fill="#5DC58F"/>
<path transform="translate(803,1223)" d="m0 0h9l50 16 16 5 8 3-6 8-7 7-2 1-11 1h-117l-5-2-9-10-3-5 27-9 46-14z" fill="#5DC58F"/>
<path transform="translate(1204,388)" d="m0 0 5 5v2h2l6 9 9 11 12 16 12 18 7 10 12 19 9 15 9 20 5 12 5 17 1 6v15l-6 12-10 9-16 8-23 7-27 5-32 3h-85l-15-1-3-2v-2l14 1h85l28-2 20-2 16-3 17-5 12-5 11-7 6-5 5-10 1-5-1-13-4-16-12-28-10-17-6-11-9-15-24-34-14-18-8-11-4-6z" fill="#489A72"/>
<path transform="translate(329,582)" d="m0 0 5 2 16 7 22 6 25 4 20 2 20 1h19l48-1 21-1 4 2-2 2-23 1h-64l-31-2-28-4-22-5-18-6-11-6z" fill="#489A72"/>
<path transform="translate(730,1065)" d="m0 0 3 3 11 3 36 12 14 5 12 3 9-2 12-4 9-4 27-9 16-5 4-1 1 2-20 7-22 8-26 9-6 2-9-1-60-20-13-4z" fill="#489A72"/>
<path transform="translate(803,1223)" d="m0 0h9l50 16 16 5 8 3-4 1-69-22-2-1-9 1-43 13-25 8-7 2-1-2 27-9 46-14z" fill="#489A72"/>
<path transform="translate(435,354)" d="m0 0h2l-1 5-8 13-5 8-3-1 3-4v-3l-4 1 4-6 11-11z" fill="#4A9E74"/>
<path transform="translate(1174,353)" d="m0 0 4 2 11 11 1 4 6 6-1 2-17-17z" fill="#46976F"/>
</svg>
