<?xml version="1.0" encoding="UTF-8"?>
<svg version="1.1" viewBox="0 0 1600 1600" width="400" height="400" xmlns="http://www.w3.org/2000/svg">
<path transform="translate(770,271)" d="m0 0h54l28 3 39 7 31 9 25 10 16 7 31 16 17 11 15 10 17 13 13 11 12 11 9 9 9 11 12 14 11 14 10 13 13 20 12 22 11 23 9 24 7 22 7 28 5 30 1 13v63l-2 19-5 28-6 31v6l22 6 16 3 42 14 21 11 6 7 13 24 11 24 21 42 6 16 3 14 1 20v132l-2 6-4 3-4 1-37 1h-83l-44-1-19-8-46-23-38-20-10-8-7-10-10-23-7-26-6 1-12 6-24 14-15 8-21 9-11 7-1 2 4 2 12 25 9 20 3 10v16l-24 72-9 24-11 20-11 12-9 10-14 15-45 45h-2l-2 4-9 9-7 8-15 15-5-1-8-7-21-21-6-7-2-1v-2l-3-1-52-52-7-8-15-16-8-14-9-23-17-50-6-18-4-17v-10l2-10 5-12 8-15 10-22-1-4-16-8-24-11-23-13-14-8-5-2h-3l-3 9-4 15-9 22-7 11-8 7-16 8-27 13-16 8-36 19-9 4-6 1-24 1h-128l-11-1-5-3-2-2-1-31 1-130 7-21 15-30 11-23 16-33 6-11 6-5 17-9 27-10 21-6 35-7v-7l-9-45-3-20-1-15-1-40 1-28 2-18 5-24 8-32 9-25 11-25 10-19 14-24 15-22 12-16 13-15 11-12 9-9 8-7 16-13 19-14 15-10 15-9 29-15 22-10 24-9 35-9 33-6z" fill="#C875F8"/>
<path transform="translate(1169,769)" d="m0 0 16 4 24 5 42 14 21 11 6 7 13 24 11 24 21 42 6 16 3 14 1 20v132l-2 6-4 3-4 1-37 1h-83l-44-1-19-8-46-23-38-20-10-8-7-10-10-23-7-26-6 1-12 6-24 14-15 8-21 9-11 7-1 2 4 2 12 25 9 20 3 10v16l-24 72-9 24-11 20-11 12-9 10-14 15-45 45h-2l-2 4-9 9-7 8-15 15-5-1-8-7-21-21-6-7-2-1v-2l-3-1-52-52-7-8-15-16-8-14-9-23-17-50-6-18-4-17v-10l2-10 5-12 8-15 10-22-1-4-16-8-24-11-23-13-14-8-5-2h-3l-3 9-4 15-9 22-7 11-8 7-16 8-27 13-16 8-36 19-9 4-6 1-24 1h-128l-11-1-5-3-2-2-1-31 1-130 7-21 15-30 11-23 16-33 6-11 6-5 17-9 27-10 21-6 30-6h8l5 16 6 17 12 26 7 10 9 12v2h4v2l7 1 1 1 13 2 7-1h7l13-2 41-3 36 1 19 1 66-1 2-5h2l-2-6 5 2 17 9 21 8 21 6 30 5h36l27-4 24-6 24-9 14-7 2 1-2 3 3 5 5 1 37 1 18-2 28-1h103l17-2 11-6 5-3 8-10 11-21 10-24 7-21z" fill="#28BFFA"/>
<path transform="translate(782,434)" d="m0 0h34l25 3 23 6 17 6 25 12 14 8 18 13 12 11 21 21 13 18 9 15 13 27 6 18 5 23 3 19 1 15v16l-3 26-6 27-6 18-8 18-10 18-12 17-11 13-11 12-8 7-9 8-20 14-18 10-15 7-24 8-22 5-22 3h-36l-30-5-24-7-20-8-17-9-19-12-11-9-20-18-7-8-12-15-14-22-11-23-7-19-6-26-2-13-1-12v-29l2-19 5-26 8-24 11-23 9-15 13-18 8-9 7-8 12-11 11-9 17-12 18-10 17-8 18-6 15-4 14-3z" fill="#22293F"/>
<path transform="translate(552,941)" d="m0 0 7 1 7 2 15 2h30l19-1 20-1 20-2h191l21-1 27 2h35l35 2h20l25 2 12 3-1 7-9 9-6 3-5 4-5 2-8 4-7 5-5 3-1 3-18 10-20 9-10 5-8 5-1 2 4 2 12 25 9 20 3 10v16l-24 72-9 24-11 20-11 12-9 10-14 15-45 45h-2l-2 4-9 9-7 8-15 15-5-1-8-7-21-21-6-7-2-1v-2l-3-1-52-52-7-8-15-16-8-14-9-23-17-50-6-18-4-17v-10l2-10 5-12 8-15 10-22-1-4-16-8-24-11-19-11-5-5-7-4-8-5-14-8-13-11-5-5-4-6z" fill="#29C0FA"/>
<path transform="translate(770,271)" d="m0 0h54l28 3 39 7 31 9 25 10 16 7 31 16 17 11 15 10 17 13 13 11 12 11 9 9 9 11 12 14 11 14 10 13-1 4-4-1-4-3v-2l-4-2-6-5-6-3v-3h-8l-8 1v-2l-20 1-3-1-21-1h-41l-4-1h-7l-2 1h-15l-11 1-24 1-14 1-3 1h-20l-4 1h-25l-15-1-9-1h-13l-12 1-1 2h-27l-6-2h-8l-7 2-1-3-9-1-1 1-12-1-3-1h-126l-1 1h-15v-1l-12-1-5 1h-17l-31-1h-11l1 3-10 1-1 2h-10l-5 3-5-2-1-5 4-6 8-10 11-13 11-12 9-9 8-7 16-13 19-14 15-10 15-9 29-15 22-10 24-9 35-9 33-6z" fill="#7ED9E5"/>
<path transform="translate(1154,526)" d="m0 0 6 1 4 2 7 22 7 28 5 30 1 13v63l-2 19-5 28-7 37-4 10-7 20-12 26-6 11-6 8h-2l-1 3-14 8-2 1-17 2h-113l-28 2-16 1-29-1-6-2-3-6h2l2-5 15-9 16-12 10-9 11-10 7-8 12-15 12-19 10-19 9-24 6-25 3-20 1-12v-16l-2-23-5-26-6-21-9-20-9-17 1-2 9-3 6 1 11-2 21 2h13l24 1 4-1 32-1 1-3 16-2h12l10 1v-2h2l2-4z" fill="#C875F8"/>
<path transform="translate(982,421)" d="m0 0h7l4 1h49l13 1 3 1 22-1-1 2 13-1 2 1v3l6 2 10 8 5 5 3 1v-2l3 1 11 17 12 22 11 23 8 21v2l-9-1-3 4h-2v2h-22l-16 2-1 2-9 1-23 1-10 1-24-1-14-1-16-1-12 2-3-1-8 1-1 2-5-5-7-11-10-13-26-26-19-14-15-9-22-11-19-7-21-6-21-3-9-1h-34l-23 3-18 4-24 8-25 12-16 10-16 12-10 9-8 7-9 10-8 10-12 17-5 9-3-3-1-8-9 2-1-4-15 1-12 3-25 4-4 1h-11l-7-1h-12l-24-2-5-2-10-2-8-1-2-2-10-2-5-3v-2h-4l-2 6-4 1 3-10 13-30 10-19 14-24z" fill="#A4A5ED"/>
<path transform="translate(1128,456)" d="m0 0 4 4 12 22 11 23 8 21v2l-9-1-3 4h-2v2h-22l-16 2-1 2-9 1-23 1-10 1-24-1-14-1-16-1-12 2-3-1-8 1-1 2-5-5-7-11-10-13-26-26-19-14-3-3 4-1v-1h7l14 7h10l22-4 29-3 12-2 11-1 6 1h19l9-1 31 1 20 1 9-2 4 1h4l-3-6z" fill="#A4A4ED"/>
<path transform="translate(1147,728)" d="m0 0 7 1 5 2 8 1 3 3h5v8l-5 26-6 15-4 1-6 3-16 2-28-1-11-1h-17l-37 1-2-1h-8l-12 2-18 2h-17v-2l-8 5h-7l1-5 9-12 12-20 4 1 5-3h3v-2h8l1-5-4-6h2l1-5 6 1 4-1 1-2 20-1 12-3 27-3h50z" fill="#A08AF9"/>
<path transform="translate(1169,769)" d="m0 0 16 4 24 5 42 14v2l-10-2-10-1-7 2-5 6-11 8-8 7-9 11-16 15-7 9-8 7-14 13-5 6-5 5-2 4h-3v2l-4-1-6-3-4-1v-6l1-2h2l2-5 6-11 9-15 4-8 10-19 10-24 7-21z" fill="#08A1FD"/>
<path transform="translate(568,720)" d="m0 0h5l10 5 4 3v-2h2l1-2 6 16 12 25 8 12-1 6-3 2-20 1-9 1h-11l-5 1h-13l-13-1-14 1-13 1h-56l-16-4-7-5-2-4-2-1v-3l-3-1v-11l6 1 16-4 7-3-4-2h2v-2l-6-1-1-2-3-2 1-2-4-1v-1l13-2 12-2 5-2 7 1 9-3 28-3 15-3 19-2 17-4z" fill="#A08AF9"/>
<path transform="translate(526,383)" d="m0 0 1 2-8 10h-2v2h3l2 9v2l13 5h43l23 1 38-1h51l27-1 24-2 22-1h21l49 1 10 1 59 2 50-1 24-2h17l25 2 42 1 10-1 3-1v-2l3-1v-7l1-3-2-1h2l-1-3 4 1 1-2 12 14 9 11 12 15 5 7-1 4-4-1-4-3v-2l-4-2-6-5-6-3v-3h-8l-8 1v-2l-20 1-3-1-21-1h-41l-4-1h-7l-2 1h-15l-11 1-24 1-14 1-3 1h-20l-4 1h-25l-15-1-9-1h-13l-12 1-1 2h-27l-6-2h-8l-7 2-1-3-9-1-1 1-12-1-3-1h-126l-1 1h-15v-1l-12-1-5 1h-17l-31-1h-11l1 3-10 1-1 2h-10l-5 3-5-2-1-5 4-6 8-10 11-13 11-12z" fill="#8FC2E8"/>
<path transform="translate(616,317)" d="m0 0 2 1 1 3 6 3 1 6 16 1h31l4 1h73l20-1h70l17-2 34 2h16l23 2 18 1 1-2 34 3h4v-2l13-2 4 1 2-1 16 10 9 7v2l-7-1-11-4-6-1v2l-11 1v2l-16 2-2 1-53-1-18-1-13 1-27-1h-52l-3-1h-18l-5 1-6-1-2 1h-39l-20 1h-46l-16 1h-15l-3-1-27-1-13-1-5-2-3-5 2-5 2-1 1-4 2-5h2v-3z" fill="#76E5E3"/>
<path transform="translate(482,880)" d="m0 0 4 2 8 10 24 28 7 7v2l4 2 7 8 13 11 11 9 13 10 5 3-1 6-6 21-9 22-7 11-8 7h-2v-23l-7-9-9-9-7-8-20-20-2-1v-2l-4-2-13-12-9-10-6-9-3-7-4-5-10-4-1-5 6-8 8-10 5-4 5-5z" fill="#0898FD"/>
<path transform="translate(552,360)" d="m0 0 4 1-2 4v6l4 6 11 2h13l51-3 5-1 27-1h13l14 1h10l15-1 4 2h15l5-1 2 1h27l34-1 7-2h4v2l18-1h97l3-1h33l19 2 28 2 8 1 2-1h20v-2h7l4 3-3 3-3 4-5 3-8 2h-27l-33-2h-23l-5-1-2 1h-14l-12 2h-15l-5-1-1 1h-79l-11 1h-50l-2-1-7 1-2-1-35-1-3 1-20-1-2-1h-15l-4-1-24 1-5 2h-8l-4 1h-21v-2l-13 1h-31l-13-2-4-6-5-1-1-4 4-6 6-7z" fill="#84D0E7"/>
<path transform="translate(432,775)" d="m0 0 7 7 6 3 13 3h56l13-1 21-1 12 1h7l7-1h9l25-2 6-1 3-4 12 16 10 11v2l-5-1 2 8v5l-4 1h-15l-25 2-67 1-28-1-14 1h-25l-8-6-5-8-3-3-4-10-4-11z" fill="#8C99FC"/>
<path transform="translate(770,271)" d="m0 0h54l28 3 39 7 31 9 16 6 2 3v5l-8-1-2-2-10 2-10 1-3-1v3l-9-1v2l-20 1-16-1-26-1v2h-15l-1-2-3 1h-37l-9-2-8 1-2-1h-17l-25-1-4-4-3-4-4 2-12 1v-2l-4 1v-2h-3l-1-2-2 1h-9l-1-2 3-4 33-9 38-7z" fill="#6AFAE0"/>
<path transform="translate(929,1019)" d="m0 0 5 2 3 4 11 23 9 20 3 10v16l-3 8-1-4 1-10-2-5-8 1-5-4-8-2-103 1-21 1-6-4-3-11-1-16 3-5 4-1 22-1 31-4 20-4 18-5 25-8z" fill="#08A2FD"/>
<path transform="translate(1161,783)" d="m0 0 3 1-3 10-7 16h-3l-2 4-8 4-15 5-10 2h-116l-12 2-9-2-2-2-6-1v-3l-3-4 1-7 3-6 2-7 7-2 5-3h2v2l2-1h15l20-2 10-2h8l2 1 37-1h17l11 1 28 1 16-2z" fill="#8C99FC"/>
<path transform="translate(649,490)" d="m0 0 3 1-12 11-12 14-13 18-3 3 2-5 8-13 6-9 7-7 2-3h2l1-3z" fill="#898CFA"/>
<path transform="translate(763,1292)" d="m0 0 4 1 6 7 6 5 7 8 13 13-2 1-8-7-21-21z" fill="#0B97FB"/>
<path transform="translate(1126,1076)" d="m0 0 5 1 15 6 6 1 10 5 5 1v1h-11l-18-8-12-6z" fill="#2AC3FA"/>
<path transform="translate(1011,973)" d="m0 0m-1 1m-1 1m-2 1h2l-1 3-17 10-3-1 4-4 9-5 2-2z" fill="#2DC3F9"/>
<path transform="translate(682,1208)" d="m0 0 5 3 3 3v2h2v2h2v2h2v5l-14-14z" fill="#2FC2F9"/>
<path transform="translate(794,544)" d="m0 0h11l11 1v1l-30 1-2-2z" fill="#8FC4F7"/>
<path transform="translate(745,1274)" d="m0 0 7 6 8 7 4 5-4-1v-2l-3-1-12-12z" fill="#1DABFA"/>
<path transform="translate(763,1292)" d="m0 0 4 1 6 7 4 4-2 2-7-7z" fill="#0FA3FC"/>
<path transform="translate(505,406)" d="m0 0 2 1-4 9-3 1-1 2h-2l1-4z" fill="#9BBEEB"/>
<path transform="translate(666,1021)" d="m0 0 1 3-4 7-3 2 1-6 2-4z" fill="#189DFA"/>
<path transform="translate(526,383)" d="m0 0 1 2-8 10-3-1 7-8z" fill="#91C3E8"/>
<path transform="translate(972,793)" d="m0 0 2 3-8 7-3 3-2-1 7-7z" fill="#529DFC"/>
<path transform="translate(986,989)" d="m0 0 2 1-10 6-3 1v-3z" fill="#2DC7F9"/>
</svg>
